<?xml version="1.0" encoding="utf-8"?>
<!-- Generator: Adobe Illustrator 28.2.0, SVG Export Plug-In . SVG Version: 6.00 Build 0)  -->
<svg version="1.1" id="Laag_1" xmlns="http://www.w3.org/2000/svg" xmlns:xlink="http://www.w3.org/1999/xlink" x="0px" y="0px"
	 width="800px" height="560px" viewBox="0 0 800 560" style="enable-background:new 0 0 800 560;" xml:space="preserve">
<style type="text/css">
	.st0{fill:#FFFFFF;}
	.st1{fill:#FFFFFF;stroke:#000000;stroke-miterlimit:10;}
	.st2{fill:#52D85F;}
	.st3{fill:none;stroke:#000000;stroke-miterlimit:10;}
	.st4{fill:none;stroke:#000000;stroke-miterlimit:10;stroke-dasharray:4.0523,2.0261;}
	.st5{fill:none;stroke:#000000;stroke-miterlimit:10;stroke-dasharray:3.9982,1.9991;}
	.st6{fill:none;}
	.st7{fill:#EDED7E;}
	.st8{fill:none;stroke:#000000;stroke-miterlimit:10;stroke-dasharray:3.9701,1.9851;}
	.st9{fill:none;stroke:#000000;stroke-miterlimit:10;stroke-dasharray:3.8975,1.9487;}
	.st10{fill:none;stroke:#000000;stroke-miterlimit:10;stroke-dasharray:3.9942,1.9971;}
	.st11{stroke:#000000;stroke-miterlimit:10;}
	.st12{fill:#1D84FF;}
	.st13{fill:none;stroke:#000000;stroke-miterlimit:10;stroke-dasharray:3.9409,1.9705;}
	.st14{fill:none;stroke:#000000;stroke-miterlimit:10;stroke-dasharray:4.0395,2.0197;}
	.st15{fill:#FC2727;}
	.st16{fill:none;stroke:#000000;stroke-miterlimit:10;stroke-dasharray:4.0237,2.0118;}
</style>
<g id="Layer_2">
	<g>
		<path class="st0" d="M149.9,517.6c-5.6,0-15-1.1-20.1-2.3c-5.8-1.4-7.2-3-8.3-4.5c-0.2-0.2-0.3-0.4-0.5-0.6
			c-0.4-0.4-0.8-0.5-1.3-0.6c-1.2-0.3-2.1-0.7-2.7-3.4c-0.3-1.6-0.3-3.2-0.3-4.8c0-2.5,0-4.9-1.2-6.4c-0.9-1.2-1.4-1.5-1.9-1.8
			c-0.6-0.4-1.2-0.8-2.3-2.6c-1.6-2.6-0.7-6.2,0.1-9.1c0.2-0.7,0.3-1.3,0.5-1.9c0.6-2.8,0.6-11.4,0.6-15.1c0-4.1-2.9-40.9-7.8-64.5
			c-0.6-2.7-1.1-5.3-1.6-7.7c-3.9-18.6-5.9-27.9-1.7-34.8c5.3-8.9,15.8-30.7,14-41.1c-0.7-4.2-5.4-13.8-10.8-24.9
			c-3.7-7.7-8-16.4-11.8-25c-5.9-13.5-9.3-23.8-10.5-31.5c-1.3-8.4-2.5-15.7-3.6-22.1c-1-5.7-1.8-10.6-2.5-15.1H75
			c-1.7,35.3-4.4,94.6-3.9,99.8c0.3,2.9,1.3,6.6,2.5,11.2c1.9,7.1,4.5,16.9,6.1,30l0.1,0.6c2.6,21.2,3.5,28.3-0.9,39.3
			c-3.2,8-4.4,18.8-5,23.4c-0.3,2.5-0.3,2.5-0.8,2.5c-0.2,0-0.5-0.1-0.5-0.6c-0.2-1.6-4.4-19.7-11.4-34.6
			c-6.5-13.9-9.7-37.6-7.5-55.2c1.4-11.1,2.5-14.6,3.5-17.7c0.5-1.5,1-3,1.4-5.2c0.5-2.6,0.8-18.6,1.2-38.9
			c0.3-17.7,0.7-37.7,1.4-55.3c0.6-16.2,1.3-27.4,2.1-34.1c3-23.9,8.4-37.1,18.8-45.6c2.4-1.9,4.9-3.6,7.7-5c15-7.5,29-8.5,40.8-8.5
			c1.8,0,3.7,0,5.8,0.1c0.7,0,1.4,0,2.2,0c2.9,0,6.1-0.1,9.8-0.2c4.9-0.2,10.5-0.4,17-0.4c10.6,0,20.9,0.5,31.7,1.6h0.3
			c4.2,0.4,8.8,1,13.8,1.6c7.2,1,14,2.1,21.1,3.4c48.8,9.2,135,19.3,164.7,19.3c2.9,0,5.3-0.1,7-0.3c7.8-0.9,11.7-2.3,15.8-3.8
			c3.5-1.3,7.1-2.6,13.5-3.8c6.3-1.2,14.4-2.1,24.7-2.6c7.4-0.4,14.8-0.6,22.8-0.6c9.7,0,18.6,0.3,27.2,0.6
			c7.8,0.3,15.1,0.5,22.4,0.5c9,0,16.6-0.4,23.9-1.2c25.9-3,38.8-5.8,41.3-6.3c-0.4-2.3-1.9-12.1-1.8-17.2c0-1.5-0.1-2.8-0.2-3.9
			c-0.2-3.1-0.4-5.2,3-5.8c0.2,0,0.4,0,0.6,0c4.8,0,17.5,9.3,19.7,11.7c1.4,1.5,3.7,2.9,5.1,3.7c-0.6-2.2-1.4-7.2,1.5-11.8
			c2-3.3,5.1-5.2,9.4-7.8c3.5-2.2,7.9-4.8,13.2-9.2c6.8-5.7,9.9-11.3,11.8-14.7c1.2-2.1,1.8-3.2,2.7-3.2c0.3,0,0.6,0.1,0.8,0.4
			c2.3,2.3,0.9,11.4-1.8,18.6c-2.2,5.9-4,10.6-4.6,12.3c1.5-0.2,4.8-0.8,6.2-1.7c1.9-1.3,13.4-10.8,19.1-16.9c2.6-2.8,4.2-5,5.3-6.4
			s1.5-2,2.1-2c0.2,0,0.5,0.1,0.8,0.5c0.9,1.7-1.9,10.7-8.7,24c-4.3,8.4-8.2,12.6-10.5,15.1c-1.3,1.4-2.1,2.2-1.8,2.7
			c0.4,0.8,2,1.7,3.6,2.5c1.9,1,4,2.1,5.1,3.5c3.7,4.8,9.1,10.3,14.8,16.1l2.3,2.3c0.2,0.1,5.4,4.3,7.2,11.6
			c0.7,2.8,0.7,4.8,0.7,6.3c0,2.6,0,4.4,2.9,7.7c4.7,5.5,20.6,24.8,24.3,29.5c1.2,1.5,1.8,2.4,2.2,3.1c1,1.5,1.1,1.7,4.9,3.9
			c6.9,4.1,10.1,7.5,9.4,10.3c-1,3.9-3.8,9.5-10.7,14c-5.9,3.8-9.6,4.4-13.9,5.1c-1.2,0.2-2.5,0.4-3.9,0.7c-0.9,0.2-1.6,0.3-2.3,0.5
			c-1.9,0.4-3.1,0.7-4.1,0.7l0,0c-1.5,0-2.6-0.6-4.3-1.8c-2.5-1.8-5.9-2.6-8.2-2.6c-0.9,0-1.7,0.1-2.2,0.4
			c-1.1,0.5-8.3,2.1-16.3,3.6c-4.9,0.9-14,2.4-19.1,2.4c-0.5,0-1,0-1.4,0c-1.8-0.1-3.1-0.3-4.2-0.4c-1.2-0.1-2.1-0.2-2.9-0.2
			c-1.6,0-2.8,0.4-6,1.7c-2.5,1-5,1.3-7.3,1.6c-3.4,0.4-6.4,0.8-8.7,3.2c-1.4,1.5-4.4,2.6-8.2,3.8c-7.5,2.5-18.8,6.3-27.1,17.4
			c-0.4,0.5-0.8,1.1-1.2,1.7c-6.6,9.9-12.5,28.5-17.6,44.8c-4.3,13.7-8.1,25.5-11.6,30.7c-5.9,8.7-13.4,14.7-22.9,22.3
			c-3.5,2.8-7.1,5.7-11,9c-5.9,5-12.7,8.1-19.9,9.2c-1.8,0.3-3.7,0.4-5.5,0.4c-2.2,0-3.7-0.2-4.5-0.3c-0.3,2.3-1.7,10.8-5.3,16.8
			c-2.5,4.1-3.4,12.6-4.2,20.8c-0.5,5.2-1,10-1.9,13.7c-0.8,3.5-1.9,5.7-3,8.1c-1.9,4.1-4,8.3-4.9,19.6c-1.7,20.3,3,36.4,3.6,38.2
			c1.7,5.5,2.6,6.5,6,8.5c1,0.6,1.7,0.9,2.4,1.2c1.7,0.8,2.5,1.2,3.4,3.6c0.4,1.2,0.4,1.9,0.4,2.3c0,0.7,0,1,2.1,3.2
			c1.3,1.3,2.5,2.2,3.5,3.1c2,1.6,3.5,2.9,4.4,5.1c0.3,0.7,0.2,1.5-0.3,2.3c-1.8,2.8-8.5,4.7-15.9,4.7c-1,0-1.9,0-2.9-0.1l-2.2-0.1
			c-10.4-0.7-17.3-1.1-18-5.8c-0.3-2.1,0.2-4.4,0.7-6.4c0.6-2.4,1.1-4.4-0.1-5.3c-2.1-1.5-2.6-1.8-3.8-2.5c-0.3-0.2-0.8-0.4-1.3-0.7
			c-0.7-0.4-1.1-0.5-1.4-0.6c-0.9-0.2-1.1-0.5-2-2.7c-1.3-2.9-0.9-7.2-0.7-9.6c0-0.6,0.1-1,0.1-1.2s0-1.5,0.1-3.5
			c0.2-9.2,0.6-33.6,0.3-40.8c-0.3-7.9-2-14.3-3.4-20l-0.4-1.6c-0.8-3.1-1.2-5.3-1.4-6.7c-1.5,3.5-5,11.3-8.2,17.5
			c-1.2,2.3-2.2,4.2-3.1,5.8c-2.4,4.3-3.8,6.9-4.5,10.8c-0.9,5.5-1.3,23.5-1.3,30.1c0,4.3,1.6,5.6,3.3,7.1c0.9,0.7,1.8,1.5,2.5,2.6
			c1,1.5,1,2.4,1,3.2c0,0.9,0,1.9,1.8,4.4c1.3,1.8,2.8,3.2,4.1,4.5c2.1,2,4,3.8,4,6.2c0,3.1-8.7,3.9-21.7,4.2c-0.9,0-1.6,0-2.2,0.1
			c-0.1,0-0.3,0-0.4,0c-3.2,0-4.9-1.5-6.2-2.6c-0.8-0.7-1.4-1.3-2.2-1.4c-0.2,0-0.3,0-0.5,0c-0.6,0-1.2,0.2-1.8,0.3
			c-0.6,0.1-1.2,0.3-1.7,0.3c-1.2,0-2-0.6-2.7-2c-0.9-1.9-0.4-4.6,0.1-7.2c0.4-2,0.7-3.8,0.3-4.9c-0.4-1.1-1.1-1.6-1.9-2.2
			c-1.1-0.8-2.3-1.6-2.8-3.8c-0.9-3.6-0.3-6.1,0.2-7.3c0.1-0.3,13.1-37,11.2-53.4c-1.4-11.7-0.4-19,1.1-30.2c0.6-4.6,1.3-9.8,2-16.3
			c2-19.2,2.2-28.2,2.3-30.3c-1.7-0.1-7.9-0.3-16-0.3c-16.3,0-38.7,0.8-52.9,4.4c-5.5,1.4-10.7,3.1-15.6,4.7
			c-10.5,3.5-20.4,6.7-32,6.7c-6.5,0-13-1-19.9-3.1c-21.7-6.5-34.4-6.8-45.6-7.1c-3.2-0.1-6.3-0.2-9.5-0.4c-1.2-0.1-2.7-0.1-4.3-0.1
			c-13.3,0-36.3,2.8-51.6,4.7c-8.5,1-14.7,1.8-16.6,1.8c-0.4,0-0.6,0-0.8-0.1c-1.2,0.7-6,11.2-6.7,18c-0.3,2.9-0.2,9,0,16.1
			c0.3,10.7,0.6,22.9-0.6,28.1c-0.5,2.2-1,3.9-1.4,5.4c-1.1,4-1.7,6-0.7,12.9c1.4,9.8,6.3,32.3,9.4,37.3c1.8,2.9,4.6,4.5,6.9,5.8
			c1.7,1,3.2,1.8,3.8,3c0.4,0.8,0.8,1.6,1,2.2c0.6,1.3,0.9,2.3,2,3c0.9,0.6,2.4,2.1,4.2,3.8c1.9,1.8,4.1,3.9,5.7,5.1
			c2.1,1.6,3.1,2.9,3.2,4.1c0,0.7-0.2,1.3-0.8,1.9c-1.4,1.4-15.6,2.5-22.2,2.5c-1.8,0-3.2-0.1-4.3-0.2c-3-0.4-5.3-0.5-6.6-0.5
			c-0.4,0-0.7,0-1,0c2.6,2.2,8.3,7.4,8,9.5c-0.4,2.2-2.8,2.4-4.1,2.4c-0.3,0-0.5,0-0.7,0.1c-0.1,0-0.1,0-0.2,0.2
			c-0.4,0.6-0.9,1.2-3.5,1.6C152.1,517.5,151.1,517.6,149.9,517.6z"/>
		<path d="M660.6,54c0.2,0,0.3,0.1,0.5,0.2c1.9,1.9,1,10.5-1.9,18.1c-2.9,7.6-4.9,13.1-4.9,13.1s5.3-0.6,7.2-1.9
			s13.5-10.8,19.2-16.9c4.9-5.2,6.3-8.3,7-8.3c0.1,0,0.2,0.1,0.3,0.3c0.7,1.2-1.5,9.5-8.7,23.6c-7.3,14.1-13.4,16.4-12.4,18.3
			s6.7,3.5,8.7,6.1c4.3,5.5,10.6,11.8,17.1,18.4c0,0,5.3,4.2,7,11.4c1.7,7.2-1.1,8.7,3.6,14.3c4.8,5.5,20.5,24.7,24.3,29.5
			s1.7,3.8,7.2,7s9.9,6.8,9.1,9.7c-0.8,2.9-3,8.9-10.5,13.7c-7.4,4.8-11.2,4.4-17.7,5.7c-3.2,0.7-4.9,1.1-6.3,1.1
			c-1.3,0-2.3-0.5-4-1.7c-2.5-1.8-5.9-2.7-8.5-2.7c-1,0-1.8,0.1-2.4,0.4c-1.1,0.5-8.2,2.1-16.1,3.5c-7,1.3-14.6,2.4-19,2.4
			c-0.5,0-0.9,0-1.3,0c-3.8-0.3-5.7-0.6-7.1-0.6c-1.7,0-2.9,0.4-6.2,1.7c-6.1,2.5-12.2,0.6-16.2,4.9c-4,4.4-22.8,4.6-35.4,21.3
			c-0.4,0.5-0.8,1.1-1.2,1.7c-12,18.1-21.5,64.1-29.2,75.5c-8,11.8-19,18.6-33.8,31.2c-7,6-14.1,8.3-19.7,9.1
			c-2,0.3-3.9,0.4-5.4,0.4c-3.1,0-4.9-0.4-4.9-0.4l0,0c0,0-1.1,10.3-5.3,17.1c-4.2,6.8-3.8,25.1-6.1,34.6c-2.3,9.5-6.5,9.9-8,27.8
			s1.9,32.9,3.6,38.4s2.7,6.7,6.3,8.7c3.6,2.1,4.4,1.5,5.5,4.6c1.1,3-1,2.1,2.7,5.7c3.6,3.6,6.5,4.8,7.8,8c1.2,2.9-6,6.4-15.7,6.4
			c-0.9,0-1.9,0-2.9-0.1c-11.2-0.8-19-1-19.8-5.5c-0.8-4.6,3-10.1,0.4-12c-2.7-1.9-2.9-1.9-5.1-3.2c-2.3-1.3-1.7,0.4-3.2-3
			s-0.6-9.3-0.6-10.6c0-1.3,0.8-35.6,0.4-44.3c-0.4-8.7-2.3-15.6-3.8-21.7s-1.5-8.6-1.5-8.6s-4.8,11-8.9,19.2
			c-4.2,8.2-6.7,11.2-7.6,16.7s-1.3,23.6-1.3,30.2c0,6.7,3.8,6.7,5.9,9.9c2.1,3.2-0.6,2.9,2.9,7.6c3.4,4.8,8,6.8,8,10.5
			c0,3.6-18.1,3.6-23.4,3.8c-0.1,0-0.3,0-0.4,0c-5,0-6-3.6-8.4-4c-0.2,0-0.4,0-0.6,0c-1.3,0-2.5,0.6-3.5,0.6c-0.8,0-1.6-0.4-2.2-1.7
			c-1.5-3.2,1.3-9.3,0.4-12c-1-2.7-3.8-2.3-4.8-5.9s-0.2-6.1,0.2-7c0.4-1,13.1-37.3,11.2-53.6c-1.9-16.4,0.8-24,3-46.4
			c2.3-22.4,2.3-30.8,2.3-30.8s-6.8-0.3-16.5-0.3c-15.6,0-38.5,0.7-53.1,4.5c-17.4,4.5-30.6,11.4-47.5,11.4c-6,0-12.5-0.9-19.8-3.1
			c-27.8-8.4-40.5-6.6-55.1-7.5c-1.3-0.1-2.7-0.1-4.3-0.1c-20.3,0-62.6,6.5-68.3,6.5c-0.3,0-0.6,0-0.6-0.1l-0.1-0.1
			c-1.4,0-6.5,11.5-7.3,18.5c-0.8,7.2,1.3,35.6-0.6,44.1c-1.9,8.6-3.4,8.9-2.1,18.4s6.3,32.3,9.5,37.5c3.2,5.1,9.3,6.3,10.6,8.7
			c1.3,2.5,1.4,4.2,3.2,5.4c1.8,1.2,6.8,6.6,9.9,8.8c3,2.3,3.7,3.9,2.4,5.2c-1.1,1.1-14,2.4-21.9,2.4c-1.7,0-3.1-0.1-4.2-0.2
			c-3-0.4-5.2-0.5-6.7-0.5s-2.3,0.1-2.3,0.1s9.1,7.6,8.7,9.9c-0.4,2.3-3.4,1.9-4.4,2.1c-1,0.2,0.2,1.1-3.6,1.7
			c-0.7,0.1-1.6,0.1-2.8,0.1c-5.3,0-14.7-1-20-2.2c-6.5-1.5-7.2-3.4-8.6-4.9c-1.3-1.5-3,0.2-3.8-3.8s0.6-8.7-1.5-11.4
			c-2.1-2.7-2.3-1.3-4.2-4.4c-1.9-3,0-7.8,0.6-10.6c0.6-2.9,0.6-11.4,0.6-15.2c0-3.8-2.9-40.7-7.8-64.6c-4.9-24-8-34.6-3.4-42.2
			s16-30.4,14.1-41.4c-1.2-7.2-13.3-28.8-22.6-50c-5-11.3-9.1-22.5-10.5-31.4c-2.4-16.1-4.8-28-6.2-37.6h-2.1
			c-1.7,36.2-4.5,95.1-3.9,100.4c0.8,7.6,5.9,19.8,8.6,41.3c2.7,21.5,3.6,28.7-0.8,39.7c-4.1,10.4-5,25.6-5.3,25.6c0,0,0,0,0-0.2
			c-0.2-1.9-4.6-20.2-11.4-34.8c-6.8-14.6-9.5-38.4-7.4-54.9s3.6-16.2,4.9-22.8c1-4.8,1.2-56.2,2.6-94.3c0.5-14.2,1.2-26.6,2.1-34.1
			c2.8-22.6,8-36.6,18.6-45.3c2.3-1.9,4.8-3.5,7.6-4.9c14-7,27.1-8.4,40.6-8.4c1.9,0,3.9,0,5.8,0.1c0.7,0,1.5,0,2.2,0
			c6.7,0,15.3-0.6,26.8-0.6c8.8,0,19.2,0.3,31.6,1.6c0.1,0,0.2,0,0.3,0c4.3,0.4,9,1,13.8,1.6c6.5,0.9,13.5,2,21,3.4
			c47.9,9,134.7,19.3,164.8,19.3c2.9,0,5.3-0.1,7-0.3c14.4-1.6,15.4-5,29.4-7.6c5.6-1.1,13.2-2,24.6-2.6c8.1-0.5,15.6-0.6,22.7-0.6
			c18.5,0,34.3,1.1,49.5,1.1c8,0,15.9-0.3,24-1.2c29.3-3.4,41.8-6.5,41.8-6.5s-2-11.9-1.9-17.6s-1.6-8.5,2.5-9.2c0.1,0,0.3,0,0.5,0
			c4.6,0,17.3,9.3,19.4,11.5c2.2,2.3,6.3,4.4,6.3,4.4s-2.6-6.7,1-12.5c3.6-5.9,10.8-7.2,22.4-16.9C657,62.9,658.9,54,660.6,54
			 M75.7,171.1c-0.1,1.7-0.2,4.4-0.4,7.8C75.5,175.5,75.7,172.8,75.7,171.1 M75.1,184.4c0-0.1,0-0.2,0-0.3
			C75.1,184.2,75.1,184.3,75.1,184.4 M74.9,189.1c0-0.7,0.1-1.4,0.1-2.1C74.9,187.7,74.9,188.4,74.9,189.1 M660.6,53L660.6,53
			c-1.2,0-1.8,1.2-3.1,3.4c-1.9,3.3-5,8.9-11.7,14.5c-5.2,4.4-9.6,7-13.1,9.2c-4.3,2.7-7.5,4.6-9.5,8c-2.5,4.1-2.3,8.4-1.8,11
			c-1.3-0.8-2.9-1.9-4-3c-1.9-2-15-11.9-20.1-11.9c-0.2,0-0.5,0-0.7,0.1c-3.9,0.7-3.7,3.3-3.4,6.3c0.1,1.1,0.2,2.4,0.2,3.8
			c-0.1,4.9,1.3,13.9,1.8,16.8c-3.4,0.7-16.2,3.4-40.8,6.2c-7.3,0.8-14.8,1.2-23.8,1.2c-7.2,0-14.6-0.3-22.4-0.5
			c-8.6-0.3-17.5-0.6-27.2-0.6c-7.9,0-15.4,0.2-22.8,0.6c-10.3,0.6-18.4,1.5-24.8,2.7s-10,2.5-13.6,3.8c-4.1,1.5-7.9,2.9-15.7,3.8
			c-1.7,0.2-4,0.3-6.9,0.3c-29.7,0-115.9-10.1-164.7-19.3c-7-1.3-13.9-2.4-21.1-3.4c-5-0.7-9.7-1.2-13.8-1.6h-0.2h-0.1
			c-10.8-1-21.1-1.6-31.7-1.6c-6.5,0-12.1,0.2-17,0.4c-3.7,0.1-6.9,0.2-9.8,0.2c-0.8,0-1.5,0-2.2,0c-2.2,0.1-4.1,0.1-5.9,0.1
			c-11.8,0-26,1-41,8.5c-2.9,1.4-5.4,3.1-7.8,5c-10.5,8.6-16,21.9-19,45.9c-0.8,6.7-1.5,17.9-2.1,34.2c-0.6,17.6-1,37.7-1.4,55.3
			c-0.4,19.4-0.7,36.2-1.2,38.8c-0.4,2.2-0.9,3.6-1.4,5.1c-1,3.1-2.2,6.7-3.6,17.8c-2.2,17.7,1,41.6,7.5,55.5
			c6.9,14.9,11.2,32.9,11.3,34.5c0.1,1,0.9,1.1,1,1.1c0.9,0,1-0.9,1.1-1.4c0-0.4,0.1-0.9,0.2-1.6c0.5-4.6,1.8-15.3,4.9-23.3
			c4.4-11.2,3.5-18.3,0.9-39.6l-0.1-0.6c-1.6-13.1-4.2-22.9-6.1-30.1c-1.2-4.6-2.2-8.3-2.5-11.2c-0.4-3.8,1-39.1,3.9-99.3h0.2
			c0.6,4.4,1.5,9.2,2.4,14.7c1.1,6.4,2.4,13.6,3.6,22.1c1.2,7.8,4.6,18.1,10.5,31.6c3.8,8.6,8,17.3,11.8,25
			c5.4,11.1,10.1,20.6,10.8,24.8c1.8,10.3-8.6,31.9-13.9,40.8c-4.2,7.1-2.3,16.5,1.7,35.2c0.5,2.4,1.1,5,1.6,7.7
			c4.9,23.6,7.8,60.4,7.8,64.4c0,3.7,0,12.3-0.6,15c-0.1,0.5-0.3,1.2-0.4,1.8c-0.8,3-1.7,6.7,0,9.5c1.1,1.7,1.7,2.2,2.4,2.7
			c0.5,0.3,0.9,0.6,1.8,1.7c1.1,1.4,1.1,3.7,1,6.1c0,1.6,0,3.3,0.3,4.9c0.6,2.9,1.8,3.5,3,3.8c0.5,0.1,0.7,0.2,1,0.5
			c0.2,0.2,0.3,0.4,0.5,0.6c1.2,1.5,2.6,3.3,8.6,4.7c5.1,1.2,14.6,2.3,20.2,2.3c1.2,0,2.2-0.1,3-0.2c2.5-0.4,3.3-0.9,3.8-1.7
			c0.1,0,0.3,0,0.5,0c1.3-0.1,4.1-0.2,4.5-2.9c0.3-2.1-3.7-6.1-7.1-9.1c1.4,0,3.5,0.1,6.2,0.5c1,0.1,2.5,0.2,4.3,0.2
			c5.9,0,20.9-1,22.6-2.7c0.7-0.7,1-1.5,0.9-2.3c-0.1-1.4-1.2-2.8-3.4-4.4c-1.6-1.2-3.7-3.2-5.6-5c-1.8-1.7-3.4-3.2-4.3-3.8
			c-1-0.7-1.3-1.5-1.9-2.8c-0.3-0.7-0.6-1.4-1-2.3c-0.7-1.3-2.2-2.2-4-3.2c-2.3-1.3-4.9-2.8-6.7-5.6c-3.1-4.9-8-27.3-9.4-37.1
			c-1-6.8-0.4-8.7,0.7-12.7c0.4-1.5,0.9-3.1,1.4-5.4c1.2-5.3,0.9-17.4,0.6-28.2c-0.2-6.8-0.3-13.2,0-16c0.7-6.4,5-16,6.4-17.5
			c0.2,0,0.4,0,0.6,0c2,0,8.2-0.8,16.7-1.8c15.3-1.9,38.3-4.7,51.6-4.7c1.6,0,3,0,4.2,0.1c3.2,0.2,6.2,0.3,9.5,0.4
			c11.2,0.3,23.8,0.6,45.4,7.1c7,2.1,13.6,3.1,20.1,3.1c11.6,0,21.6-3.3,32.2-6.7c5-1.6,10.1-3.3,15.6-4.7
			c14.2-3.7,36.5-4.4,52.8-4.4c7.5,0,13.3,0.2,15.5,0.2c-0.1,2.8-0.4,11.8-2.3,29.7c-0.7,6.5-1.3,11.7-2,16.3
			c-1.5,11.2-2.4,18.6-1.1,30.3c1.9,16.2-11,52.8-11.2,53.1c-0.5,1.3-1.2,3.9-0.2,7.7c0.6,2.3,2,3.3,3,4.1c0.8,0.6,1.4,1,1.7,1.9
			c0.3,1,0,2.8-0.3,4.6c-0.5,2.7-1,5.4,0,7.5c0.7,1.5,1.7,2.3,3.1,2.3c0.6,0,1.2-0.2,1.8-0.3c0.6-0.1,1.1-0.3,1.7-0.3
			c0.1,0,0.3,0,0.4,0c0.6,0.1,1.2,0.6,2,1.3c1.3,1.2,3.1,2.8,6.6,2.8c0.1,0,0.3,0,0.4,0c0.6,0,1.3,0,2.2-0.1
			c14-0.4,22.1-1.2,22.1-4.7c0-2.6-1.9-4.5-4.1-6.6c-1.3-1.3-2.8-2.7-4.1-4.4c-1.7-2.4-1.7-3.3-1.7-4.1c0-0.8,0-1.8-1.1-3.4
			c-0.8-1.2-1.7-1.9-2.6-2.7c-1.7-1.4-3.2-2.6-3.2-6.7c0-6.6,0.4-24.6,1.3-30.1c0.7-3.8,2.1-6.4,4.4-10.6c0.9-1.7,1.9-3.5,3.1-5.8
			c2.7-5.4,5.8-12,7.5-15.9c0.2,1.3,0.6,3,1.1,5.1l0.4,1.6c1.4,5.6,3,12,3.4,19.9c0.3,7.2-0.1,31.6-0.3,40.8c0,2-0.1,3.2-0.1,3.5
			c0,0.2,0,0.7-0.1,1.2c-0.2,2.4-0.6,6.9,0.7,9.9c1,2.2,1.2,2.7,2.4,3c0.3,0.1,0.6,0.1,1.2,0.5c0.5,0.3,0.9,0.5,1.3,0.7
			c1.2,0.7,1.8,1,3.8,2.5c0.9,0.6,0.6,2.2-0.1,4.8c-0.5,2-1.1,4.4-0.7,6.6c0.8,5,7.9,5.5,18.5,6.2l2.2,0.1c1,0.1,2,0.1,3,0.1
			c7.6,0,14.4-2,16.3-5c0.8-1.2,0.6-2.2,0.4-2.8c-1-2.3-2.6-3.7-4.5-5.2c-1-0.8-2.2-1.8-3.5-3.1c-2-2-2-2.3-2-2.8s0-1.2-0.5-2.5
			c-0.9-2.5-1.7-3-3.6-3.9c-0.6-0.3-1.4-0.7-2.3-1.2c-3.3-1.9-4.2-2.8-5.8-8.2c-0.5-1.8-5.3-17.8-3.6-38c1-11.2,3-15.4,4.9-19.4
			c1.1-2.3,2.2-4.7,3.1-8.2c0.9-3.7,1.4-8.6,1.9-13.8c0.8-8.1,1.6-16.5,4.1-20.6c3.5-5.7,4.9-13.6,5.3-16.5c0.9,0.1,2.3,0.3,4.1,0.3
			c1.8,0,3.7-0.1,5.6-0.4c7.4-1.1,14.1-4.3,20.2-9.4c3.9-3.3,7.5-6.2,11-9c9.5-7.6,17.1-13.6,23-22.4c3.5-5.2,7.3-17.1,11.6-30.8
			c5.2-16.3,11-34.8,17.6-44.7c0.4-0.6,0.8-1.1,1.2-1.6c8.2-11,19.4-14.7,26.9-17.2c4-1.4,7-2.3,8.5-4c2.1-2.3,5-2.7,8.3-3.1
			c2.3-0.3,4.9-0.6,7.5-1.6c3.1-1.3,4.3-1.6,5.8-1.6c0.7,0,1.6,0.1,2.8,0.2c1.1,0.1,2.4,0.2,4.2,0.4c0.4,0,0.9,0,1.4,0
			c5.2,0,14.3-1.5,19.2-2.4c7.5-1.4,15.1-3,16.4-3.6c0.4-0.2,1.1-0.3,2-0.3c2.2,0,5.5,0.8,7.9,2.5c1.7,1.3,2.9,1.9,4.6,1.9
			c1.1,0,2.3-0.3,4.2-0.7c0.7-0.1,1.4-0.3,2.3-0.5c1.4-0.3,2.7-0.5,3.9-0.7c4.4-0.7,8.2-1.3,14.1-5.1c7.1-4.5,9.8-10.3,10.9-14.3
			c0.8-3-2.3-6.6-9.6-10.8c-3.6-2.1-3.7-2.3-4.7-3.7c-0.5-0.7-1.1-1.6-2.3-3.1c-3.8-4.7-19.7-24-24.4-29.5c-2.7-3.2-2.7-4.7-2.7-7.4
			c0-1.6,0-3.6-0.7-6.5c-1.7-7.2-6.7-11.4-7.3-11.9l-2.2-2.3c-5.7-5.8-11-11.3-14.8-16c-1.2-1.5-3.3-2.6-5.2-3.6
			c-1.4-0.8-3.1-1.6-3.4-2.3c0-0.3,1-1.3,1.8-2.1c2.3-2.5,6.2-6.7,10.6-15.2c6.2-12.1,9.9-22.4,8.7-24.5c-0.4-0.7-0.9-0.8-1.2-0.8
			c-0.8,0-1.3,0.7-2.5,2.2c-1.1,1.4-2.6,3.6-5.3,6.3c-5.7,6-17.2,15.5-19,16.8c-1,0.7-3.4,1.2-5.1,1.5c0.8-2.2,2.4-6.4,4.3-11.5
			c2.7-7.3,4.1-16.7,1.7-19.1C661.3,53.1,660.9,53,660.6,53L660.6,53L660.6,53z"/>
	</g>
</g>
<g id="Layer_1">
	<path class="st1" d="M75.5,182.3c0.4-12.2,0.4-13.3,0.4-13.3s-0.6,11.8-1.4,28.2h2.1C75.8,191.6,75.3,186.8,75.5,182.3z"/>
	<g>
		<path class="st2" d="M433.6,172.1V122c-13.9,2.6-15,6-29.4,7.6c-20.2,2.3-119.4-9.1-171.9-19c-7.5-1.4-14.5-2.5-21-3.4v64.9
			c0,13.9,11.2,25.1,25.1,25.1h172.1C422.3,197.2,433.6,185.9,433.6,172.1z"/>
		<g>
			<path class="st3" d="M433.6,124v-2c-0.7,0.1-1.3,0.3-2,0.4"/>
			<path class="st4" d="M429.6,122.8c-10.4,2.5-12.5,5.3-25.4,6.8c-20.2,2.3-119.4-9.1-171.9-19c-6.4-1.2-12.4-2.2-18.1-3"/>
			<path class="st3" d="M213.3,107.5c-0.7-0.1-1.3-0.2-2-0.3v2"/>
			<path class="st5" d="M211.3,111.2v60.9c0,13.9,11.2,25.1,25.1,25.1h172.1c13.9,0,25.1-11.2,25.1-25.1V125"/>
		</g>
	</g>
	<path class="st6" d="M75.9,169c0,0,0,0.6-0.1,1.7C75.8,170.6,75.8,170.1,75.9,169z"/>
	<g>
		<path class="st7" d="M197.2,105.5c-30.5-3-49-0.7-60.7-1c-15.6-0.4-30.4,0.4-46.4,8.4c-2.8,1.4-5.3,3-7.6,4.9
			c-6.5,22.3-6.9,53.7-6.7,52.9c0.1-1.1,0.1-1.7,0.1-1.7s0,1.1-0.4,13.3c-0.1,4.5,0.3,9.3,1.1,14.9c1.3,9.6,3.8,21.5,6.2,37.6
			c1.3,8.9,5.5,20.1,10.5,31.4h73.4c17.1,0,30.9-13.8,30.8-30.9L197.2,105.5z"/>
		<g>
			<path class="st3" d="M197.2,107.5v-2c-0.7-0.1-1.3-0.1-2-0.2"/>
			<path class="st8" d="M193.2,105.2c-28.2-2.4-45.5-0.4-56.7-0.7c-15.6-0.4-30.4,0.4-46.4,8.4c-2.8,1.4-5.3,3-7.6,4.9
				c-5.7,19.4-6.7,45.8-6.8,51.7"/>
			<path class="st3" d="M75.7,170.5c0,0.2,0,0.3,0,0.2c0.1-1.1,0.1-1.7,0.1-1.7s0,0.3,0,2"/>
			<path class="st9" d="M75.8,172.9c-0.1,2-0.1,4.9-0.3,9.4c-0.1,4.5,0.3,9.3,1.1,14.9c1.3,9.6,3.8,21.5,6.2,37.6
				c1.2,8.1,4.8,18.3,9.3,28.6"/>
			<path class="st3" d="M92.4,264.3c0.3,0.6,0.5,1.2,0.8,1.8h2"/>
			<path class="st10" d="M97.2,266.1h69.4c17.1,0,30.9-13.8,30.8-30.9l-0.2-126.7"/>
		</g>
	</g>
	<path class="st11" d="M499.2,364.2L499.2,364.2L499.2,364.2z"/>
	<path class="st11" d="M509.5,364.2h-10.4C499.2,364.2,503.4,365.1,509.5,364.2z"/>
	<g>
		<path class="st12" d="M455.8,344.4c0,10.9,8.9,19.8,19.8,19.8h23.6l0,0l0,0h10.4c5.5-0.8,12.6-3.2,19.7-9.1
			c14.8-12.5,25.9-19.4,33.8-31.2c7.7-11.4,17.2-57.4,29.2-75.5H475.6c-10.9,0-19.8,8.9-19.8,19.8L455.8,344.4L455.8,344.4z"/>
		<g>
			<polyline class="st3" points="497.2,364.2 499.2,364.2 499.2,364.2 499.2,364.2 501.2,364.2 			"/>
			<path class="st13" d="M503.1,364.2h6.4c5.5-0.8,12.6-3.2,19.7-9.1c14.8-12.5,25.9-19.4,33.8-31.2c7.4-10.9,16.4-53.4,27.7-73"/>
			<path class="st3" d="M591.2,250.1c0.4-0.6,0.7-1.2,1.1-1.7h-2"/>
			<path class="st14" d="M588.3,248.4H475.6c-10.9,0-19.8,8.9-19.8,19.8v76.2c0,10.9,8.9,19.8,19.8,19.8h20.6"/>
		</g>
	</g>
	<g>
		<path class="st15" d="M282.2,172.1c0,6.2-4,11.3-9.1,11.8l-141.2,14c-8.3,0.4-15.2-7.6-15.2-17.5v-20.3c0-9.9,6.9-17.9,15.2-17.5
			l141.2,14c5.2,0.5,9.1,5.7,9.1,11.8V172.1z"/>
		<path class="st16" d="M282.2,172.1c0,6.2-4,11.3-9.1,11.8l-141.2,14c-8.3,0.4-15.2-7.6-15.2-17.5v-20.3c0-9.9,6.9-17.9,15.2-17.5
			l141.2,14c5.2,0.5,9.1,5.7,9.1,11.8V172.1z"/>
	</g>
</g>
</svg>
