<?xml version="1.0" encoding="utf-8"?>
<!-- Generator: Adobe Illustrator 28.2.0, SVG Export Plug-In . SVG Version: 6.00 Build 0)  -->
<svg version="1.1" id="Laag_1" xmlns="http://www.w3.org/2000/svg" xmlns:xlink="http://www.w3.org/1999/xlink" x="0px" y="0px"
	 width="48px" height="48px" viewBox="0 0 48 48" style="enable-background:new 0 0 48 48;" xml:space="preserve">
<style type="text/css">
	.st0{fill:#418C9F;}
</style>
<g>
	<g>
		<g>
			<path class="st0" d="M3.1,20.4c0,8.5,6.9,15.5,15.5,15.5C27.1,35.9,34,29,34,20.4v-0.7H3.1V20.4z"/>
		</g>
	</g>
	<g>
		<g>
			<path class="st0" d="M30.6,35.9c-0.4-0.9-1.4-1.3-2.2-0.9c-0.9,0.4-1.3,1.4-0.9,2.2l3.2,7.3c0.4,0.9,1.4,1.3,2.2,0.9
				c0.9-0.4,1.3-1.4,0.9-2.2L30.6,35.9z"/>
		</g>
	</g>
	<g>
		<g>
			<path class="st0" d="M9.5,35c-0.9-0.4-1.9,0-2.2,0.9l-3.2,7.3c-0.4,0.9,0,1.9,0.9,2.2c0.9,0.4,1.9,0,2.2-0.9l3.2-7.3
				C10.8,36.4,10.4,35.4,9.5,35z"/>
		</g>
	</g>
	<g>
		<g>
			<path class="st0" d="M19.1,37.7c-0.8,0-1.5,0.7-1.5,1.5v7.3c0,0.8,0.7,1.5,1.5,1.5c0.8,0,1.5-0.7,1.5-1.5v-7.3
				C20.6,38.3,19.9,37.7,19.1,37.7z"/>
		</g>
	</g>
	<g>
		<g>
			<path class="st0" d="M24.4,13.5c0-0.2-0.1-0.4-0.2-0.6c-0.2-0.4-0.5-0.9-1-1.3h-0.2L23,13.5h-4.1v-0.8c0-0.2,0-0.5,0-0.7
				c-0.2-0.2-0.4-0.5-0.8-0.7c-0.3,0.2-0.5,0.5-0.8,0.7c0,0.2,0,0.5,0,0.7v0.8h-3.5c-0.1-0.7-0.3-1.4-0.7-2.2
				c-0.5,0.7-0.6,1.4-0.7,2.2H9.4v1.3h3.1c0.1,0.7,0.3,1.4,0.7,2.2c0.5-0.7,0.6-1.4,0.7-2.2h3.5v0.8v0.7c0.2,0.2,0.5,0.5,0.8,0.7
				c0.3-0.2,0.5-0.5,0.7-0.7v-0.7v-0.8H23l0.1,1.9h0.2c0.5-0.4,0.8-0.9,1-1.3c0.1-0.2,0.2-0.4,0.2-0.6H46v-1.3H24.4z"/>
		</g>
	</g>
	<g>
		<g>
			<path class="st0" d="M16.3,9.4c0.3-2,0.6-4.1,1.7-5.1c0.5-0.6,1.5-0.9,2.5-0.8c1,0.1,1.9,0.6,2.7,1.1C24.1,5.2,25,5.7,26,6.1
				c1,0.3,2.2,0.7,3.5,0.1c0.6-0.3,1.2-0.8,1.4-1.4c0.3-0.6,0.3-1.2,0.4-1.7C31.2,2,31,0.9,30.5,0l-0.1,0c0,1,0,2-0.3,2.9
				c-0.2,0.9-0.6,1.6-1.2,1.8c-0.6,0.3-1.5,0.2-2.4,0c-0.9-0.2-1.8-0.5-2.8-0.9c-1-0.3-2-0.6-3-0.9c-1-0.2-2.2-0.4-3.3,0.2
				c-1.1,0.7-1.5,2-1.6,3c-0.1,1.1,0.1,2.2,0.5,3.1L16.3,9.4z"/>
		</g>
	</g>
</g>
</svg>
