<?xml version="1.0" encoding="utf-8"?>
<!-- Generator: Adobe Illustrator 28.2.0, SVG Export Plug-In . SVG Version: 6.00 Build 0)  -->
<svg version="1.1" id="Laag_1" xmlns="http://www.w3.org/2000/svg" xmlns:xlink="http://www.w3.org/1999/xlink" x="0px" y="0px"
	 width="20px" height="22px" viewBox="0 0 20 22" style="enable-background:new 0 0 20 22;" xml:space="preserve">
<style type="text/css">
	.st0{fill:#418C9F;}
</style>
<path id="Path_43" class="st0" d="M2.1,5.1V4.4C2.1,4.2,2.3,4,2.5,4c0,0,0,0,0,0h4.2V2.5c0-0.9,0.7-1.6,1.5-1.6c0,0,0,0,0,0h3.1
	c0.9,0,1.6,0.7,1.6,1.5c0,0,0,0,0,0V4h4.2c0.2,0,0.4,0.2,0.4,0.4c0,0,0,0,0,0v0.7c0,0.2-0.2,0.4-0.4,0.3H2.5
	C2.3,5.5,2.1,5.4,2.1,5.1C2.1,5.1,2.1,5.1,2.1,5.1z M2.8,20.6V6.7c0-0.2,0.1-0.4,0.4-0.4h12.9c0.3,0,0.5,0.1,0.5,0.3v13.9
	c0,0.3-0.3,0.4-0.5,0.4H3.2C3.1,20.9,2.9,20.8,2.8,20.6L2.8,20.6z M6.3,18.6c0.2,0,0.4-0.2,0.4-0.4c0,0,0,0,0,0V9
	c0-0.2-0.2-0.4-0.4-0.4c0,0,0,0,0,0H5.5C5.3,8.6,5.1,8.8,5.1,9c0,0,0,0,0,0v9.2c0,0.2,0.2,0.4,0.4,0.4c0,0,0,0,0,0L6.3,18.6z
	 M11.3,4V2.5H8.2V4L11.3,4L11.3,4z M10.1,18.6c0.2,0,0.4-0.2,0.4-0.4c0,0,0,0,0,0V9c0-0.2-0.2-0.4-0.4-0.4c0,0,0,0,0,0H9.4
	C9.2,8.6,9,8.8,9,9c0,0,0,0,0,0v9.2c0,0.2,0.2,0.4,0.4,0.4c0,0,0,0,0,0L10.1,18.6z M14,18.6c0.2,0,0.4-0.2,0.4-0.4c0,0,0,0,0,0V9
	c0-0.2-0.2-0.4-0.4-0.4c0,0,0,0,0,0h-0.7c-0.2,0-0.4,0.2-0.4,0.4c0,0,0,0,0,0v9.2c0,0.2,0.2,0.4,0.4,0.4c0,0,0,0,0,0L14,18.6z"/>
</svg>
