<?xml version="1.0" encoding="utf-8"?>
<!-- Generator: Adobe Illustrator 28.2.0, SVG Export Plug-In . SVG Version: 6.00 Build 0)  -->
<svg version="1.1" id="Layer_1" xmlns="http://www.w3.org/2000/svg" xmlns:xlink="http://www.w3.org/1999/xlink" x="0px" y="0px"
	 viewBox="0 0 1280 1024" style="enable-background:new 0 0 1280 1024;" xml:space="preserve">
<style type="text/css">
	.st0{fill:#FFFFFF;stroke:#000000;stroke-miterlimit:10;}
	.st1{fill:#D98A3F;}
</style>
<g>
	<path class="st0" d="M105.94,336.97c-0.82,0-1.5-0.67-1.5-1.5v-7.06c0-3.16,0.6-4.46,3-5.82c1.93-1.1,14.91-8.55,21-11.17v-11.3
		c-1.87-1.36-3-3.47-3-6.7v-8.95c0-7.42,4.5-13.5,13.5-13.5c9,0,13.5,6.07,13.5,13.5v8.95c0,3.19-1.12,5.3-3,6.67v11.33
		c6.47,2.62,19.07,10.07,21,11.17c2.4,1.36,3,2.66,3,5.82v7.06c0,0.83-0.67,1.5-1.5,1.5H105.94L105.94,336.97z"/>
	<path class="st0" d="M220.36,335.47c0-0.53,0.11-1.03,0.28-1.5h-3.28c-1.42,0-2.6-1.5-2.91-3l-12.96-54h-5.13c-1.66,0-3-1.34-3-3
		c0-1.66,1.34-3,3-3h7.5c1.39,0,2.6,0.96,2.92,2.31l2.3,9.69h57.78c0.91,0,1.77,0.41,2.34,1.12c0.43,0.54,0.66,1.2,0.66,1.88
		c0,0.22-0.02,0.43-0.07,0.65l-6,27c-0.3,1.37-1.52,2.35-2.93,2.35h-43.97l2.84,12h36.63c1.66,0,3,1.34,3,3c0,1.66-1.34,3-3,3h-3.28
		c0.17,0.47,0.28,0.97,0.28,1.5c0,2.48-2.02,4.5-4.5,4.5c-2.48,0-4.5-2.02-4.5-4.5c0-0.53,0.11-1.03,0.28-1.5h-15.55
		c0.17,0.47,0.28,0.97,0.28,1.5c0,2.48-2.02,4.5-4.5,4.5C222.38,339.97,220.36,337.95,220.36,335.47z M214.36,291.97v-3h-3.76
		l0.67,3H214.36z M214.36,297.97v-3h-2.43l0.69,3H214.36z M214.36,303.97v-3h-1.02l0.71,3H214.36z M220.36,291.97v-3h-3v3H220.36z
		 M220.36,297.97v-3h-3v3H220.36z M220.36,303.97v-3h-3v3H220.36z M220.36,309.97v-3h-3v3H220.36z M226.36,291.97v-3h-3v3H226.36z
		 M226.36,297.97v-3h-3v3H226.36z M226.36,303.97v-3h-3v3H226.36z M226.36,309.97v-3h-3v3H226.36z M232.36,291.97v-3h-3v3H232.36z
		 M232.36,297.97v-3h-3v3H232.36z M232.36,303.97v-3h-3v3H232.36z M232.36,309.97v-3h-3v3H232.36z M238.36,291.97v-3h-3v3H238.36z
		 M238.36,297.97v-3h-3v3H238.36z M238.36,303.97v-3h-3v3H238.36z M238.36,309.97v-3h-3v3H238.36z M244.36,291.97v-3h-3v3H244.36z
		 M244.36,297.97v-3h-3v3H244.36z M244.36,303.97v-3h-3v3H244.36z M244.36,309.97v-3h-3v3H244.36z M250.36,291.97v-3h-3v3H250.36z
		 M250.36,297.97v-3h-3v3H250.36z M250.36,303.97v-3h-3v3H250.36z M250.36,309.97v-3h-3v3H250.36z M256.36,291.97v-3h-3v3H256.36z
		 M256.36,297.97v-3h-3v3H256.36z M256.36,303.97v-3h-3v3H256.36z M256.36,309.97v-3h-3v3H256.36z M262.45,291.97l0.67-3h-3.76v3
		H262.45z M261.12,297.97l0.67-3h-2.43v3H261.12z M259.79,303.97l0.67-3h-1.09v3H259.79z"/>
	<path class="st0" d="M309.28,306.97h-11.9l37.44-37.26l0.01,0.14l10.45,10.36v-9.25h9v18.15l18,17.85h-12v33h-18v-18h-15v18h-18
		V306.97z"/>
	<path class="st0" d="M404.71,323.32c-0.33-0.33-0.49-0.77-0.49-1.21s0.16-0.88,0.49-1.2l16.95-16.95l-16.96-16.95
		c-0.33-0.34-0.5-0.77-0.5-1.21s0.17-0.87,0.5-1.2l7.15-7.15c0.33-0.33,0.77-0.5,1.21-0.5c0.44,0,0.88,0.17,1.21,0.5l16.96,16.96
		l16.95-16.95c0.33-0.33,0.77-0.5,1.21-0.5s0.87,0.17,1.21,0.5l7.15,7.15c0.33,0.33,0.5,0.77,0.5,1.21c0,0.44-0.17,0.88-0.5,1.21
		l-16.95,16.95l16.94,16.94c0.33,0.33,0.5,0.77,0.5,1.21s-0.17,0.88-0.5,1.21l-7.15,7.15c-0.33,0.33-0.77,0.5-1.21,0.5
		s-0.88-0.17-1.21-0.5l-16.94-16.94l-16.94,16.95c-0.33,0.33-0.77,0.49-1.21,0.49c-0.44,0-0.88-0.16-1.21-0.49L404.71,323.32z"/>
	<path class="st1" d="M544.9,311.2l8.73,26.55l-23.04-16.52l-22.92,16.61l8.71-26.51l-23.27-16.36h28.73l8.82-27h0.09l8.76,27h28.31
		L544.9,311.2z M507.56,337.93l0.12-0.09l-0.03,0.08L507.56,337.93z"/>
	<path class="st1" d="M614.31,311.47l-23.27-16.36h28.73l8.82-27h0.09l8.76,27h28.31l-22.93,16.24l8.73,26.55l-23.04-16.52
		l-22.92,16.61L614.31,311.47z M605.6,337.97l-0.03,0.08l-0.09,0.01L605.6,337.97z M635.76,309.02l11.37-7.92h-14.05l-3.05-9.41
		l0.01,0.03v23.33l10.14,7.39L635.76,309.02z"/>
	<path class="st1" d="M740.74,311.2l8.73,26.55l-23.04-16.52l-22.92,16.61l8.71-26.5l-23.27-16.36h28.73l8.82-27h0.09l8.76,27h28.31
		L740.74,311.2z M703.4,337.93l0.12-0.09l-0.03,0.08L703.4,337.93z M738.09,322.31l-4.41-13.43l11.37-7.92H731l-4.47-13.76
		l-4.49,13.76h-14.35l11.62,8.04l-4.37,13.1l11.49-8.31L738.09,322.31z"/>
	<path class="st0" d="M798.31,303.97l31.47-31.48l11.02,11.02l-20.43,20.46l20.45,20.45l-11.03,11.03L798.31,303.97z"/>
	<path class="st0" d="M902.98,324.42l20.45-20.45l-20.44-20.46L914,272.49l31.48,31.48L914,335.44L902.98,324.42z"/>
	<path class="st0" d="M1018.72,304.52l-20.46,20.44l-11.01-11.02l31.48-31.48l31.48,31.48l-11.03,11.03L1018.72,304.52z"/>
	<path class="st0" d="M1085.16,294l11.01-11.02l20.46,20.44l20.45-20.45l11.03,11.03l-31.48,31.48L1085.16,294z"/>
</g>
</svg>
