<?xml version="1.0" encoding="utf-8"?>
<!-- Generator: Adobe Illustrator 28.2.0, SVG Export Plug-In . SVG Version: 6.00 Build 0)  -->
<svg version="1.1" id="Laag_2_00000090999673732446205070000007885713232311274918_"
	 xmlns="http://www.w3.org/2000/svg" xmlns:xlink="http://www.w3.org/1999/xlink" x="0px" y="0px" viewBox="0 0 1043.7 72"
	 style="enable-background:new 0 0 1043.7 72;" xml:space="preserve">
<style type="text/css">
	.st0{fill:#FFFFFF;}
	.st1{fill:#D98A35;}
</style>
<g>
	<g id="XMLID_00000036230417026547438970000013342195374170178181_">
		<g>
			<polygon class="st0" points="1043.7,26 1012.2,57.5 980.7,26 980.7,26 991.7,15 1012.2,35.5 1032.6,15 			"/>
			<polygon class="st0" points="945.8,46 934.7,57 914.3,36.5 914.3,36.5 893.8,57 882.8,46 914.3,14.5 			"/>
			<polygon class="st0" points="841,36 809.6,67.5 798.5,56.5 819,36 798.5,15.5 809.6,4.5 			"/>
			<polygon class="st0" points="736.4,56.5 725.3,67.5 693.9,36 693.9,36 725.3,4.5 736.4,15.5 715.9,36 			"/>
			<path class="st1" d="M659.2,27l-22.9,16.2v0l8.7,26.5l-23-16.5l-22.9,16.6l0,0l8.7-26.5L584.5,27h28.7l8.8-27h0.1l8.8,27H659.2z
				 M629.2,40.9l11.4-7.9h-14l-4.5-13.8L617.6,33h-14.3l11.6,8l-4.4,13.1l11.5-8.3l11.6,8.5l0,0l0,0l0,0L629.2,40.9z"/>
			<polygon points="633.7,54.3 633.7,54.3 633.6,54.3 			"/>
			<polygon points="599.1,69.9 599,69.9 599,69.9 			"/>
			<polygon points="599,69.9 599,70 599,69.9 			"/>
			<path class="st1" d="M561.3,27.1l-22.9,16.2l8.7,26.5l-23-16.5L501.2,70l0,0l8.7-26.5l0,0l-23.3-16.4h28.7l8.8-27h0.1l8.8,27
				H561.3z M531.3,41l11.4-7.9h-14l-3-9.4v0v23.3l10.1,7.4L531.3,41L531.3,41z"/>
			<polygon points="501.1,70 501.1,70.1 501,70.1 			"/>
			<polygon class="st1" points="440.5,43.2 449.2,69.8 426.1,53.3 403.2,69.9 403.2,69.9 411.9,43.4 388.7,27 417.4,27 426.2,0 
				426.3,0 435.1,27 463.4,27 			"/>
			<polygon points="403.2,69.9 403.2,69.9 403.1,69.9 403.2,69.9 			"/>
			<polygon points="403.1,69.9 403.1,70 403.1,69.9 			"/>
			<path class="st0" d="M353.3,16.6c0.3,0.3,0.5,0.8,0.5,1.2s-0.2,0.9-0.5,1.2l-17,16.9L353.3,53c0.3,0.3,0.5,0.8,0.5,1.2
				s-0.2,0.9-0.5,1.2l-7.1,7.2c-0.3,0.3-0.8,0.5-1.2,0.5s-0.9-0.2-1.2-0.5l-16.9-16.9l-16.9,16.9c-0.3,0.3-0.8,0.5-1.2,0.5
				c-0.4,0-0.9-0.2-1.2-0.5l-7.1-7.1l0,0c-0.3-0.3-0.5-0.8-0.5-1.2c0-0.4,0.2-0.9,0.5-1.2l17-16.9l-17-17c-0.3-0.3-0.5-0.8-0.5-1.2
				s0.2-0.9,0.5-1.2l7.1-7.1c0.3-0.3,0.8-0.5,1.2-0.5s0.9,0.2,1.2,0.5l17,17l16.9-17c0.3-0.3,0.8-0.5,1.2-0.5s0.9,0.2,1.2,0.5
				L353.3,16.6z"/>
			<polygon class="st0" points="267.8,39 255.8,39 255.8,72 237.8,72 237.8,54 222.8,54 222.8,72 204.8,72 204.8,39 192.9,39 
				230.4,1.7 230.4,1.9 240.8,12.2 240.8,3 249.8,3 249.8,21.1 			"/>
			<path class="st0" d="M155.4,36l0.7-3h-1.1v3H155.4z M165.4,18c0,0.2,0,0.4-0.1,0.6l-6,27c-0.3,1.4-1.5,2.3-2.9,2.3h-44l2.8,12
				h36.6c1.7,0,3,1.3,3,3c0,1.7-1.3,3-3,3h-3.3c0.2,0.5,0.3,1,0.3,1.5c0,2.5-2,4.5-4.5,4.5s-4.5-2-4.5-4.5c0-0.5,0.1-1,0.3-1.5
				h-15.5c0.2,0.5,0.3,1,0.3,1.5c0,2.5-2,4.5-4.5,4.5s-4.5-2-4.5-4.5h0c0-0.5,0.1-1,0.3-1.5h-3.3c-1.4,0-2.6-1.5-2.9-3l-13-54h-5.1
				c-1.7,0-3-1.3-3-3s1.3-3,3-3h7.5c1.4,0,2.6,1,2.9,2.3l2.3,9.7h57.8c0.9,0,1.8,0.4,2.3,1.1C165.2,16.7,165.4,17.3,165.4,18z
				 M158,24l0.7-3h-3.8v3H158z M156.7,30l0.7-3h-2.4v3H156.7z M151.9,42v-3h-3v3H151.9z M151.9,36v-3h-3v3H151.9z M151.9,30v-3h-3v3
				H151.9z M151.9,24v-3h-3v3H151.9z M145.9,42v-3h-3v3H145.9z M145.9,36v-3h-3v3H145.9z M145.9,30v-3h-3v3H145.9z M145.9,24v-3h-3
				v3H145.9z M139.9,42v-3h-3v3H139.9z M139.9,36v-3h-3v3H139.9z M139.9,30v-3h-3v3H139.9z M139.9,24v-3h-3v3H139.9z M133.9,42v-3
				h-3v3H133.9z M133.9,36v-3h-3v3H133.9z M133.9,30v-3h-3v3H133.9z M133.9,24v-3h-3v3H133.9z M127.9,42v-3h-3v3H127.9z M127.9,36
				v-3h-3v3H127.9z M127.9,30v-3h-3v3H127.9z M127.9,24v-3h-3v3H127.9z M121.9,42v-3h-3v3H121.9z M121.9,36v-3h-3v3H121.9z
				 M121.9,30v-3h-3v3H121.9z M121.9,24v-3h-3v3H121.9z M115.9,42v-3h-3v3H115.9z M115.9,36v-3h-3v3H115.9z M115.9,30v-3h-3v3H115.9
				z M115.9,24v-3h-3v3H115.9z M109.9,36v-3h-1l0.7,3H109.9z M109.9,30v-3h-2.4l0.7,3H109.9L109.9,30z M109.9,24v-3h-3.8l0.7,3
				H109.9z"/>
			<path class="st0" d="M69,60.4v7.1c0,0.8-0.7,1.5-1.5,1.5h-66C0.7,69,0,68.3,0,67.5v-7.1c0-3.2,0.6-4.5,3-5.8
				c1.9-1.1,14.9-8.5,21-11.2V32.2c-1.9-1.4-3-3.5-3-6.7v-9C21,9.1,25.5,3,34.5,3S48,9.1,48,16.5v9c0,3.2-1.1,5.3-3,6.7v11.3
				c6.5,2.6,19.1,10.1,21,11.2C68.4,56,69,57.3,69,60.4z"/>
		</g>
		<g>
		</g>
	</g>
</g>
</svg>
