<?xml version="1.0" encoding="utf-8"?>
<!-- Generator: Adobe Illustrator 28.2.0, SVG Export Plug-In . SVG Version: 6.00 Build 0)  -->
<svg version="1.1" id="Laag_1" xmlns="http://www.w3.org/2000/svg" xmlns:xlink="http://www.w3.org/1999/xlink" x="0px" y="0px"
	 viewBox="0 0 17.2 17.4" style="enable-background:new 0 0 17.2 17.4;" xml:space="preserve">
<style type="text/css">
	.st0{fill:#428C9F;}
</style>
<path class="st0" d="M14.9,9.7C14.9,9.7,14.8,9.7,14.9,9.7c-0.5-0.4-1.2-0.5-1.9-0.5c0.1-0.4,0.2-0.9,0.2-1.3V6c0,0,0.1,0.1,0.1,0.1
	c0.2,0.3,0.5,0.5,0.9,0.5c0.5,0,0.9-0.5,0.9-1.1l-0.1-1.6C14.9,3.3,14.6,0,14,0c-0.5,0-0.4,3.5-0.3,4l0,0l-0.8-0.5
	c-0.6-1.7-2.3-2.6-4.3-2.6c-2.1,0-3.8,0.9-4.4,2.6L3.5,4.1l0,0c0-0.5,0.2-4-0.3-4C2.7,0,2.4,3.3,2.3,3.9L2.2,5.5
	c0,0.5,0.4,1,0.9,1.1c0.4,0,0.7-0.2,0.9-0.5c0,0,0,0,0.1,0v1.9c0,0.6,0.1,1.1,0.3,1.6C3.6,9.3,3,9.3,2.5,9.5c0,0,0,0-0.1,0
	C1.5,9.9,1.3,11.8,2,14c0.7,2.1,2,3.7,2.9,3.4c0.9-0.3,1-2.2,0.4-4.3c0,0,0,0,0,0c0.7,1.6,1.9,2.7,3.3,2.7c1.3,0,2.5-1,3.2-2.5
	c-0.7,2-0.6,3.8,0.3,4.1c0.9,0.3,2.2-1.1,3-3.2C15.8,12,15.8,10,14.9,9.7z"/>
</svg>
