<?xml version="1.0" encoding="utf-8"?>
<!-- Generator: Adobe Illustrator 28.2.0, SVG Export Plug-In . SVG Version: 6.00 Build 0)  -->
<svg version="1.1" id="Laag_1" xmlns="http://www.w3.org/2000/svg" xmlns:xlink="http://www.w3.org/1999/xlink" x="0px" y="0px"
	 width="60px" height="41.2px" viewBox="0 0 60 41.2" style="enable-background:new 0 0 60 41.2;" xml:space="preserve">
<style type="text/css">
	.st0{fill:#418C9F;}
</style>
<path id="Path_14" class="st0" d="M0.9,41.2c-0.5,0-0.9-0.4-0.9-0.9v-4.4c0-2,0.4-2.8,1.9-3.6c1.2-0.7,9.3-5.3,13.1-7v-7
	c-1.3-1-2-2.6-1.9-4.2V8.5c0-4.7,2.8-8.5,8.5-8.5C27.2,0,30,3.8,30,8.5V14c0.1,1.6-0.6,3.2-1.9,4.1v7.1c4,1.6,11.9,6.3,13.1,7
	c1.5,0.8,1.9,1.6,1.9,3.6v4.4c0,0.5-0.4,0.9-0.9,0.9L0.9,41.2z M45,35.1c0-2.4-0.5-3.9-3.1-5.4c-0.7-0.4-1.5-0.9-2.4-1.4v-0.6
	c-1-0.1-2.1-0.3-3.1-0.6c-0.9-0.4-1.8-1-2.6-1.4c-0.5-0.4-1-0.9-1.4-1.3c-0.2-0.2-0.3-0.4-0.3-0.6c0-1,1.7-2,3-3.5
	c1.6-1.9,1.9-3.4,1.9-7.2c0-4.1,3.3-7.4,7.4-7.4s7.4,3.3,7.4,7.4c0,3.7,0.3,5.3,1.8,7.2c1.3,1.5,2.8,2.5,2.8,3.4
	c0,0.3-0.1,0.5-0.3,0.7c-1.9,2-4.5,3.2-7.3,3.3v3.7c3.8,1.6,8.1,3.7,9.4,4.4c1.1,0.5,1.8,1.5,1.9,2.7v1.9c0,0.5-0.3,0.9-0.8,0.9
	c0,0-0.1,0-0.1,0H45V35.1z"/>
</svg>
