<?xml version="1.0" encoding="utf-8"?>
<!-- Generator: Adobe Illustrator 28.2.0, SVG Export Plug-In . SVG Version: 6.00 Build 0)  -->
<svg version="1.1" id="Laag_1" xmlns="http://www.w3.org/2000/svg" xmlns:xlink="http://www.w3.org/1999/xlink" x="0px" y="0px"
	 viewBox="0 0 240 240" style="enable-background:new 0 0 240 240;" xml:space="preserve">
<style type="text/css">
	.st0{fill:#FFFFFF;}
	.st1{fill:#FFFFFF;stroke:#000000;stroke-width:3;stroke-linecap:round;stroke-miterlimit:10;}
	.st2{display:none;}
	.st3{display:inline;}
</style>
<g id="Layer_3">
	<g>
		<circle class="st0" cx="120" cy="120" r="120"/>
		<circle class="st1" cx="120" cy="120" r="105"/>
		<g class="st2">
			<path class="st3" d="M70.4,197.4l-4.3-2.9l-2.2,1.4l-2.2-1.5l10.4-6.5l2.1,1.4l-2.1,12.1l-2.2-1.5L70.4,197.4z M70.8,195.3
				l0.9-4.6l-3.9,2.6L70.8,195.3z"/>
			<path class="st3" d="M89.1,197.3l-4.8,10.1l-1.9-0.9l-2.2-8.5l-2.9,6.2L75,203l4.8-10.1l1.9,0.9l2.2,8.5l2.9-6.2L89.1,197.3z"/>
			<path class="st3" d="M91.8,198.3l4.9,1.4c1.2,0.3,2.1,0.9,2.9,1.6c0.8,0.7,1.3,1.5,1.6,2.5s0.2,2-0.1,3c-0.3,1.1-0.8,1.9-1.6,2.6
				s-1.6,1.1-2.6,1.3c-1,0.2-2.1,0.1-3.3-0.2l-4.9-1.4L91.8,198.3z M94.1,208.4c1.1,0.3,2,0.2,2.8-0.2c0.8-0.4,1.4-1.1,1.7-2.2
				c0.3-1,0.2-1.9-0.3-2.7c-0.5-0.8-1.2-1.3-2.3-1.6l-2.3-0.6l-1.9,6.7L94.1,208.4z"/>
			<path class="st3" d="M119.9,214.2l0.2-6.7l-3.5,5.4l-1.2,0l-3.1-5.5l-0.2,6.6l-2.4-0.1l0.4-11.2l2.1,0.1l3.9,7.1l4.4-6.8l2.1,0.1
				l-0.4,11.2L119.9,214.2z"/>
			<path class="st3" d="M129.3,213.1c-1-0.4-1.8-0.9-2.4-1.8s-1-1.7-1.2-2.8c-0.1-1.1,0-2.1,0.4-3.1c0.4-0.9,1-1.7,1.9-2.4
				c0.9-0.6,1.9-1,3-1.2s2.2-0.1,3.2,0.3c1,0.4,1.8,0.9,2.4,1.8c0.6,0.8,1.1,1.7,1.2,2.8s0,2.1-0.4,3.1s-1,1.7-1.9,2.4
				c-0.9,0.6-1.9,1-3,1.2C131.4,213.6,130.3,213.5,129.3,213.1z M134,210.5c0.5-0.4,0.8-0.9,1.1-1.4c0.2-0.6,0.3-1.2,0.2-1.9
				c-0.1-0.7-0.3-1.3-0.7-1.8s-0.9-0.9-1.4-1.1c-0.6-0.2-1.2-0.3-1.8-0.2s-1.2,0.3-1.7,0.7c-0.5,0.4-0.8,0.9-1.1,1.4
				c-0.2,0.6-0.3,1.2-0.2,1.9c0.1,0.7,0.3,1.3,0.7,1.8c0.4,0.5,0.9,0.9,1.4,1.1c0.6,0.2,1.2,0.3,1.8,0.2
				C132.9,211.1,133.5,210.9,134,210.5z"/>
			<path class="st3" d="M149.4,209.3l-3-2.4l-0.1,0l-2.2,0.6l0.9,3l-2.5,0.8l-3.2-10.7l4.6-1.4c0.9-0.3,1.8-0.4,2.6-0.3
				c0.8,0.1,1.5,0.4,2,0.9s0.9,1.1,1.2,1.9c0.2,0.8,0.3,1.5,0.1,2.2c-0.2,0.7-0.6,1.3-1.2,1.8l3.4,2.7L149.4,209.3z M146.2,201.3
				c-0.5-0.2-1.1-0.2-1.9,0l-2,0.6l1.1,3.7l2-0.6c0.8-0.2,1.3-0.6,1.6-1s0.3-1,0.2-1.6C147.1,201.9,146.7,201.5,146.2,201.3z"/>
			<path class="st3" d="M162.6,201.5l0.9,1.9l-7.9,3.7l-4.7-10.1l7.7-3.6l0.9,1.9l-5.3,2.5l1,2.2l4.7-2.2l0.9,1.8l-4.7,2.2l1.1,2.4
				L162.6,201.5z"/>
			<path class="st3" d="M166.4,201.3c-0.4-0.1-0.7-0.4-1-0.7c-0.2-0.4-0.3-0.8-0.2-1.2c0.1-0.4,0.4-0.7,0.7-0.9
				c0.4-0.2,0.8-0.3,1.2-0.2c0.4,0.1,0.7,0.3,0.9,0.7c0.2,0.4,0.3,0.8,0.2,1.2s-0.3,0.7-0.7,0.9
				C167.2,201.3,166.8,201.4,166.4,201.3z"/>
			<path class="st3" d="M171.3,198.3c-0.4-0.1-0.8-0.3-1-0.7c-0.3-0.4-0.3-0.8-0.2-1.2s0.3-0.7,0.7-1s0.8-0.3,1.1-0.3
				c0.4,0.1,0.7,0.3,1,0.7c0.2,0.4,0.3,0.8,0.3,1.2s-0.3,0.8-0.7,1C172.1,198.3,171.7,198.3,171.3,198.3z"/>
			<path class="st3" d="M176,195c-0.4-0.1-0.8-0.3-1-0.6c-0.3-0.4-0.4-0.8-0.3-1.1c0.1-0.4,0.3-0.7,0.6-1c0.4-0.3,0.7-0.4,1.1-0.3
				c0.4,0,0.8,0.2,1,0.6c0.3,0.4,0.4,0.7,0.3,1.2s-0.2,0.8-0.6,1C176.8,194.9,176.4,195,176,195z"/>
		</g>
		<g class="st2">
			<path class="st3" d="M68.9,53.7c-1,0.1-2,0-3-0.4c-0.9-0.4-1.7-1-2.4-2s-1-1.9-1.1-2.9c-0.1-1,0.1-2,0.6-3
				c0.5-0.9,1.2-1.8,2.1-2.4c0.8-0.6,1.6-1,2.4-1.1c0.8-0.2,1.7-0.2,2.5,0l-0.4,2.2c-1.1-0.3-2.1-0.1-3.1,0.6
				c-0.6,0.4-1,0.9-1.2,1.5c-0.3,0.6-0.4,1.2-0.3,1.8s0.3,1.2,0.7,1.8s0.9,1,1.5,1.2c0.6,0.3,1.2,0.4,1.8,0.3
				c0.6-0.1,1.2-0.3,1.8-0.7c0.9-0.7,1.4-1.6,1.5-2.7l2.2,0.3c-0.1,0.8-0.3,1.6-0.7,2.4c-0.4,0.7-1.1,1.4-1.8,2
				C70.9,53.1,69.9,53.5,68.9,53.7z"/>
			<path class="st3" d="M78.8,47.1c-1.1,0-2-0.3-2.9-0.8s-1.6-1.3-2.1-2.3s-0.7-2-0.7-3s0.4-2,1-2.8c0.6-0.9,1.4-1.6,2.5-2.1
				c1-0.5,2.1-0.8,3.1-0.8c1.1,0,2,0.3,2.9,0.8c0.9,0.5,1.6,1.3,2.1,2.3s0.7,2,0.6,3s-0.4,2-1,2.8S83,45.8,82,46.3
				C80.9,46.8,79.9,47.1,78.8,47.1z M82.4,43.1c0.3-0.5,0.5-1.1,0.5-1.7c0-0.6-0.1-1.2-0.4-1.9c-0.3-0.6-0.7-1.1-1.2-1.4
				c-0.5-0.3-1.1-0.5-1.7-0.6c-0.6,0-1.2,0.1-1.8,0.4c-0.6,0.3-1.1,0.7-1.4,1.2s-0.5,1.1-0.5,1.7c0,0.6,0.1,1.2,0.4,1.9
				s0.7,1.1,1.2,1.4c0.5,0.3,1.1,0.5,1.7,0.6s1.2-0.1,1.8-0.4C81.6,44.1,82,43.7,82.4,43.1z"/>
			<path class="st3" d="M91.4,41.3c-1-0.2-1.9-0.6-2.7-1.3c-0.8-0.7-1.3-1.5-1.7-2.6s-0.4-2.1-0.1-3.1s0.7-1.9,1.5-2.6
				s1.7-1.3,2.8-1.7c1.1-0.3,2.2-0.4,3.2-0.2s1.9,0.6,2.7,1.3s1.3,1.5,1.7,2.6s0.4,2.1,0.1,3.1c-0.2,1-0.7,1.9-1.5,2.6
				s-1.7,1.3-2.8,1.7C93.6,41.5,92.5,41.5,91.4,41.3z M95.6,38c0.4-0.5,0.7-1,0.8-1.6s0.1-1.2-0.1-1.9c-0.2-0.7-0.5-1.2-1-1.6
				c-0.4-0.4-1-0.7-1.6-0.8c-0.6-0.1-1.2-0.1-1.8,0.1s-1.2,0.5-1.6,1s-0.7,1-0.8,1.6s-0.1,1.2,0.1,1.9c0.2,0.7,0.5,1.2,1,1.6
				c0.4,0.4,1,0.7,1.6,0.8c0.6,0.1,1.2,0.1,1.8-0.1C94.6,38.8,95.2,38.5,95.6,38z"/>
			<path class="st3" d="M106.1,33.7l-1.3,1.8l0.4,2.8l-2.6,0.4l-1.7-11.1l2.6-0.4l0.8,5.2l4.1-5.9l2.8-0.4l-3.8,5.6l5.8,5.4l-3,0.5
				L106.1,33.7z"/>
			<path class="st3" d="M124.6,32.4c0.4,0.5,0.5,1.1,0.5,1.8c0,1-0.4,1.7-1.2,2.2c-0.8,0.5-1.9,0.8-3.3,0.7l-5.8-0.1l0.2-11.2
				l5.5,0.1c1.4,0,2.4,0.3,3.1,0.8c0.7,0.5,1.1,1.3,1.1,2.1c0,0.5-0.1,1-0.4,1.5c-0.3,0.4-0.6,0.8-1.1,1
				C123.7,31.5,124.2,31.9,124.6,32.4z M121.9,34.8c0.3-0.2,0.5-0.6,0.5-1c0-0.9-0.7-1.4-2-1.4l-3,0l0,2.8l3,0
				C121.1,35.2,121.6,35.1,121.9,34.8z M117.5,27.8l0,2.6l2.6,0c0.6,0,1.1-0.1,1.5-0.3s0.5-0.5,0.5-1s-0.2-0.8-0.5-1
				s-0.8-0.3-1.4-0.3L117.5,27.8z"/>
			<path class="st3" d="M129.8,37.1c-0.8-0.6-1.5-1.4-1.8-2.4s-0.5-2-0.3-3.1s0.6-2,1.2-2.8s1.5-1.3,2.5-1.7c1-0.4,2.1-0.4,3.2-0.2
				c1.1,0.2,2.1,0.6,3,1.2c0.8,0.6,1.4,1.4,1.8,2.4s0.5,2,0.3,3.1c-0.2,1.1-0.6,2-1.3,2.8s-1.5,1.3-2.5,1.7c-1,0.3-2.1,0.4-3.2,0.2
				C131.6,38.2,130.6,37.7,129.8,37.1z M134.9,36c0.6-0.2,1.1-0.6,1.4-1.1s0.6-1.1,0.7-1.8s0.1-1.3-0.2-1.9s-0.6-1.1-1-1.5
				s-1-0.6-1.7-0.7c-0.6-0.1-1.3,0-1.8,0.2c-0.6,0.2-1.1,0.6-1.4,1.1s-0.6,1.1-0.7,1.8c-0.1,0.7-0.1,1.3,0.2,1.9
				c0.2,0.6,0.6,1.1,1,1.5s1,0.6,1.7,0.7S134.4,36.2,134.9,36z"/>
			<path class="st3" d="M143.3,39.9c-0.7-0.8-1.2-1.7-1.4-2.7s-0.1-2,0.2-3.1c0.4-1,0.9-1.9,1.7-2.6c0.8-0.7,1.7-1.1,2.7-1.3
				c1-0.2,2.1-0.1,3.2,0.3c1.1,0.4,2,0.9,2.7,1.7s1.2,1.7,1.4,2.7c0.2,1,0.2,2-0.2,3.1s-0.9,1.9-1.7,2.6c-0.8,0.7-1.7,1.1-2.7,1.3
				c-1,0.2-2.1,0.1-3.2-0.3S144,40.7,143.3,39.9z M148.6,39.7c0.6-0.1,1.1-0.4,1.6-0.8c0.5-0.4,0.8-1,1-1.6c0.2-0.7,0.3-1.3,0.2-1.9
				s-0.4-1.2-0.8-1.6c-0.4-0.5-0.9-0.8-1.6-1s-1.2-0.3-1.8-0.1c-0.6,0.1-1.1,0.4-1.6,0.8c-0.5,0.4-0.8,1-1,1.6
				c-0.2,0.7-0.3,1.3-0.2,1.9c0.1,0.6,0.4,1.2,0.8,1.6c0.4,0.5,0.9,0.8,1.6,1C147.4,39.7,148,39.8,148.6,39.7z"/>
			<path class="st3" d="M159.6,42.4l-2.1,0.7l-1.3,2.5l-2.3-1.2l5.2-9.9l2.3,1.2l-2.4,4.6l6.8-2.3l2.6,1.3l-6.4,2.3l1.5,7.8
				l-2.7-1.4L159.6,42.4z"/>
			<path class="st3" d="M165.5,50.7c-0.5-0.7-0.9-1.3-1.1-1.9l1.9-1.1c0.2,0.6,0.5,1.1,0.9,1.7s0.9,1,1.4,1.4
				c0.6,0.4,1.1,0.7,1.5,0.7s0.7-0.1,0.9-0.4c0.1-0.2,0.2-0.5,0.1-0.7c-0.1-0.3-0.2-0.5-0.4-0.8c-0.2-0.3-0.5-0.6-0.9-1
				c-0.6-0.7-1-1.2-1.4-1.7s-0.5-1-0.6-1.6s0.1-1.2,0.6-1.8c0.4-0.5,0.9-0.9,1.5-1.1c0.6-0.2,1.3-0.3,2-0.1s1.6,0.5,2.4,1.1
				c0.6,0.4,1.1,0.9,1.6,1.4c0.5,0.5,0.8,1.1,1,1.6l-1.8,1.1c-0.5-1.1-1.2-1.9-2-2.5c-0.6-0.4-1.1-0.6-1.5-0.7c-0.4,0-0.7,0.1-1,0.5
				c-0.2,0.3-0.2,0.7,0,1s0.6,0.9,1.2,1.5c0.6,0.7,1,1.2,1.4,1.7c0.3,0.5,0.5,1,0.6,1.6s-0.1,1.2-0.6,1.8c-0.4,0.5-0.9,0.9-1.4,1.1
				c-0.6,0.2-1.3,0.2-2,0.1s-1.6-0.5-2.4-1.1C166.7,52,166.1,51.4,165.5,50.7z"/>
		</g>
		<path d="M192.8,106.4C178.1,51.6,112,28,67.3,68.1C106.8,22.5,184.9,46.7,192.8,106.4z"/>
		<g>
			<path d="M93.1,79.4L93.1,79.4L93.1,79.4z"/>
			<path d="M67.3,120.9c-4,0-9.2,3.3-9.8,8.5h0.8c1.8-7.4,10.4-10.1,10.7-3.4c0.3,7.4-6.8,21.7-22,21.7c-5.8,0-9-3.8-9-10.7
				c0-5.8,1.9-12.8,5.5-20c2,0.5,4.2,0.7,6.9,0.7c16.6,0,30.4-5.8,39.7-13c8.5-6.4,13.4-13,13.4-18.1c0-4.5-3.9-7.2-10.2-7.2
				c-2,0-4.1,0.2-6.2,0.7c-3.5,0.7-7.6,2-12.3,3.9c-5.9,2.7-11.7,6.1-16.9,10.1c-1.7-0.3-3.5-0.4-5.5-0.4
				c-12.7,0-19.8,6.7-19.8,12.9c0,3.5,2.3,6.7,6.2,8.7c-4,6.8-6.2,13.6-6.2,19.6c0,8.9,5.2,13.8,14.5,13.8
				C68.8,148.7,81.9,120.9,67.3,120.9z M60,95.5c8.5,1.7,15.5,5.8,19.2,11.5l0.5-0.6c-3.5-5.4-10.4-9.7-18.7-11.7
				c5.6-4.8,11.6-8.4,17.8-10.8c5.5-2.2,10.8-3.3,15.1-3.3c4.5,0,6.7,1.4,6.7,4.3c0,0.9-0.3,2.1-0.9,3.3l0,0
				c-1.6,3.7-5.6,8.6-12.5,14.1c-9.6,7.6-23,14.4-36.8,14.4c-2.4,0-4.6-0.3-6.6-0.7C47.7,108.7,53.3,101.5,60,95.5z M33.5,107.2
				c0-5.4,6.6-12.4,19-12.4c1.3,0,2.7,0.1,4,0.2c-7.2,5.8-13.3,12.5-17.5,19.5C35.5,112.8,33.5,110.2,33.5,107.2z"/>
			<path d="M123.9,106.2c1.2,0.2,2.9-1.1,3.6-2.8c0.9-1.8,0.5-3.3-1-3.4c-1.2-0.1-2.8,1.2-3.6,2.8
				C122.2,104.6,122.6,106.1,123.9,106.2z"/>
			<path d="M186.3,151.7c-0.1,0.2-0.2,0.3-0.2,0.5c-0.6,0.8-1.2,1.6-1.8,2.5c-3.2,3.4-8.8,5.3-16.1,5.3c-12.3,0-24.1-12.5-36.3-15.6
				c0.7-2.4,1.1-5.1,1.1-8c0-8.2-1.3-16-0.6-20.1l0.3-1.3c0.1-0.1,0.1-0.2,0.1-0.3c1.1-2.2,3.9-3.4,4-4.9c0.1-1.1-0.5-2-1.5-2
				l-0.7,0.1c-1.8,0.8-1.1,3.6-2.5,6.2c-2,3.3-4.3,6.4-8.6,11.9h0c-6,8.4-15.3,17.5-21.7,17.5c-0.2,0-0.3,0-0.3-0.3
				c0-1.6,5-7.9,10.8-15.7c3.8-5.2,8.4-11.1,11.8-16.5c-2,2.3-5,3.2-5.5,1.2c-4.9,6.5-6,7.8-8.9,11.8c-1.1,1.4-2.1,2.7-3.1,4.1
				c-6.2,7.8-15.2,15.4-18.4,15.4l0,0c-0.2,0-0.3,0-0.3-0.3c0-1.6,5-7.9,10.8-15.7c3.8-5.2,8.3-11,11.9-16.2h-0.8
				c-1.7,2-4.5,2.6-4.9,0.9c-4.9,6.5-6,7.8-8.9,11.8c-1.2,1.5-2.3,3.1-3.4,4.5c-6.4,7.9-15.1,15-18.1,15c-0.2,0-0.3,0-0.3-0.3
				c0-1.6,5-7.9,10.8-15.7c3.8-5.2,8.3-11,11.9-16.2h-0.8c-1.7,2-4.5,2.6-4.9,0.9c-4.9,6.5-6,7.8-8.9,11.8
				c-5.2,6.9-10.4,13.5-10.4,17.2c0,1.9,1.1,3.2,2.6,3.2c2.5,0,8-4,13.7-9.6c-1.8,2.9-2.7,4.9-2.7,6.4c0,1.9,1.1,3.2,2.6,3.2
				c2.6,0,8.1-4.1,13.5-9.5c-1.5,2.5-2.5,4.6-2.5,6.2c0,1.9,1.1,3.2,2.6,3.2c7,0,16.6-9.8,22.8-18.4h0c2.3-2.9,4.6-5.8,6.3-8.5
				c-1.6,8.4-2,18.1-4.4,25.9c-1.9-0.3-3.9-0.5-6-0.5c-9.3,0-16.5,3.6-16.5,8.4c0,10.1,21.2,10.4,27.2-5.4
				c12.1,4,24.4,18.7,36.7,18.7c4.2,0,7.9-1,11-2.9c-4.9,6.4-10.3,12.1-17.4,16.8c-11.9,7.9-25.9,12.3-40.2,12.9
				c-23.5,0.9-45.1-9.6-60.9-26.6c14.3,20.9,37.4,33.2,62.9,32.2c27.1-1,51.6-18.6,62.7-43.1c0.3-0.6,0.6-1.3,0.9-2L186.3,151.7
				L186.3,151.7z M111.8,157L111.8,157c-4.6,0-5.4-3.3-5.2-5.7c0.5-4.2,6.5-7.4,14.2-7.4c1.9,0,3.7,0.3,5.5,0.5
				C123.6,152.4,118.1,157,111.8,157z"/>
			<path d="M159.2,106.2c1.2,0.2,2.9-1.1,3.6-2.8c0.9-1.8,0.5-3.3-1-3.4c-1.2-0.1-2.8,1.2-3.6,2.8
				C157.5,104.6,157.9,106.1,159.2,106.2z"/>
			<path d="M216.6,125.9c-6.2,8.2-19.2,17.7-25.2,17.7c-0.5,0-0.8-0.3-0.8-1.1c0-2.6,3.2-9.1,7.8-15.3c2.7-0.3,6.4-1.2,9.6-2.9
				c8.7-4.4,11.9-12.1,5.4-12.1c-7.1,0-15,6.5-20.1,13.7h0c-6.7,9.3-15.5,17.5-18.7,17.5c-0.2,0-0.3,0-0.3-0.3c0-1.6,5.2-8,11-15.7
				c3-3.9,4.7-7.7,4.7-10.6c0-2.6-1.7-4.4-4.3-4.4c-0.9,0-1.7,0.3-2.6,0.7c-2.6,1.3-5.7,4.6-9,8.6c1.1-1.9,1.7-3.7,1.7-5.3
				c0-2.5-1.3-4-3.3-4c-0.3,0-0.5,0-0.9,0.1c-1.7,0.4-6.2,5.2-12.5,13.4H159c-6,8.4-15.3,17.5-21.7,17.5c-0.2,0-0.3,0-0.3-0.3
				c0-1.6,5-7.9,10.8-15.7c3.8-5.2,8.4-11.1,11.9-16.5c-2,2.3-5,3.2-5.5,1.2c-4.9,6.5-6,7.8-8.9,11.8c-5.2,6.9-10.4,13.5-10.4,17.2
				c0,1.9,1.1,3.2,2.6,3.2c7,0,16.6-9.8,22.8-18.4h0c6.2-7.9,10.5-12.4,11.6-12.4c0.2,0,0.4,0.3,0.4,1.1c0,4.3-7.9,14.5-17.8,29.8
				c1.3-0.6,5.1-0.5,4.8,0.5c5-6.8,17.5-27.2,24.3-30.9c0.7-0.3,1.3-0.5,1.8-0.5c1.1,0,1.5,0.5,1.5,1.5c0,2-2.2,6-5.6,10.3
				c-4.9,6.3-9.2,12.2-9.2,15.8c0,1.9,1.1,3.2,2.6,3.2c3.1,0,9.6-5.9,15.2-12.5c-1.2,2.7-1.9,5.2-1.9,7.4c0,1.3,0.5,5.4,3.4,5.4
				c6.5,0,20.2-10.1,26.4-18.6L216.6,125.9L216.6,125.9z M201.6,122.9c5-6.2,9.3-9.8,11.9-9.8l0,0c2.8,0,0.9,6.8-5.7,10.3
				c-2.7,1.4-5.9,2.5-8.7,2.9C199.8,125.1,200.7,123.9,201.6,122.9z"/>
		</g>
	</g>
</g>
</svg>
