<?xml version="1.0" encoding="utf-8"?>
<!-- Generator: Adobe Illustrator 28.2.0, SVG Export Plug-In . SVG Version: 6.00 Build 0)  -->
<svg version="1.1" id="Layer_3" xmlns="http://www.w3.org/2000/svg" xmlns:xlink="http://www.w3.org/1999/xlink" x="0px" y="0px"
	 width="250px" height="250px" viewBox="0 0 250 250" style="enable-background:new 0 0 250 250;" xml:space="preserve">
<style type="text/css">
	.st0{fill:#FFFFFF;}
	.st1{fill:#FFFFFF;stroke:#000000;stroke-width:3;stroke-linecap:round;stroke-miterlimit:10;}
</style>
<g>
	<circle class="st0" cx="125" cy="125" r="120"/>
	<circle class="st1" cx="125" cy="125" r="105"/>
	<g>
		<path d="M75.4,202.4l-4.3-2.9l-2.2,1.4l-2.2-1.5l10.4-6.5l2.1,1.4l-2.1,12.1l-2.3-1.5L75.4,202.4z M75.8,200.3l0.9-4.5l-3.9,2.6
			L75.8,200.3z"/>
		<path d="M94,202.3l-4.8,10.1l-1.9-0.9l-2.2-8.5l-2.9,6.2L80,208l4.8-10.1l1.9,0.9l2.1,8.5l2.9-6.2L94,202.3z"/>
		<path d="M96.8,203.3l4.9,1.4c1.2,0.3,2.1,0.8,2.9,1.6c0.8,0.7,1.3,1.5,1.6,2.5c0.3,1,0.2,2-0.1,3c-0.3,1.1-0.8,2-1.6,2.6
			c-0.7,0.7-1.6,1.1-2.6,1.3c-1,0.2-2.1,0.1-3.3-0.2l-4.9-1.4L96.8,203.3z M99.1,213.4c1.1,0.3,2,0.2,2.8-0.2
			c0.8-0.4,1.4-1.1,1.7-2.2c0.3-1,0.2-1.9-0.3-2.7c-0.5-0.8-1.2-1.3-2.3-1.6l-2.3-0.6l-1.9,6.7L99.1,213.4z"/>
		<path d="M124.9,219.2l0.2-6.7l-3.5,5.4l-1.2,0l-3.1-5.5l-0.2,6.6l-2.4-0.1l0.4-11.2l2.1,0.1l3.9,7.1l4.4-6.8l2.1,0.1l-0.4,11.2
			L124.9,219.2z"/>
		<path d="M134.3,218.1c-1-0.4-1.8-1-2.5-1.8c-0.6-0.8-1-1.7-1.2-2.8c-0.2-1.1,0-2.1,0.4-3c0.4-0.9,1-1.7,1.9-2.4
			c0.9-0.6,1.9-1,3-1.2c1.2-0.2,2.2-0.1,3.2,0.3c1,0.4,1.8,1,2.5,1.8c0.6,0.8,1,1.7,1.2,2.8c0.1,1.1,0,2.1-0.4,3
			c-0.4,0.9-1,1.7-1.9,2.4c-0.9,0.6-1.9,1-3,1.2C136.4,218.6,135.3,218.5,134.3,218.1z M139,215.5c0.5-0.4,0.8-0.9,1.1-1.4
			c0.2-0.6,0.3-1.2,0.2-1.9c-0.1-0.7-0.3-1.3-0.7-1.8c-0.4-0.5-0.8-0.9-1.4-1.1c-0.6-0.2-1.2-0.3-1.8-0.2s-1.2,0.3-1.7,0.7
			c-0.5,0.4-0.8,0.9-1.1,1.4c-0.2,0.6-0.3,1.2-0.2,1.9c0.1,0.7,0.3,1.3,0.7,1.8c0.4,0.5,0.8,0.9,1.4,1.1c0.6,0.2,1.2,0.3,1.8,0.2
			C137.9,216.1,138.5,215.9,139,215.5z"/>
		<path d="M154.4,214.3l-3-2.4l-0.1,0l-2.2,0.7l0.9,3l-2.5,0.8l-3.2-10.7l4.6-1.4c0.9-0.3,1.8-0.4,2.6-0.3c0.8,0.1,1.5,0.4,2,0.9
			c0.6,0.5,1,1.1,1.2,1.9c0.2,0.8,0.3,1.5,0,2.2c-0.2,0.7-0.6,1.3-1.2,1.8l3.4,2.7L154.4,214.3z M151.2,206.3
			c-0.5-0.2-1.1-0.2-1.8,0l-2,0.6l1.1,3.7l2-0.6c0.7-0.2,1.3-0.6,1.6-1s0.3-1,0.2-1.6C152.1,206.9,151.7,206.5,151.2,206.3z"/>
		<path d="M167.6,206.5l0.9,1.9l-7.9,3.7l-4.7-10.2l7.7-3.6l0.9,1.9l-5.3,2.5l1,2.2l4.7-2.2l0.9,1.8l-4.7,2.2l1.1,2.3L167.6,206.5z"
			/>
		<path d="M171.4,206.3c-0.4-0.1-0.7-0.3-1-0.7c-0.2-0.4-0.3-0.8-0.2-1.2c0.1-0.4,0.4-0.7,0.7-0.9c0.4-0.2,0.8-0.3,1.2-0.2
			c0.4,0.1,0.7,0.3,1,0.7c0.2,0.4,0.3,0.8,0.2,1.2s-0.3,0.7-0.7,0.9C172.2,206.3,171.8,206.4,171.4,206.3z"/>
		<path d="M176.3,203.3c-0.4-0.1-0.7-0.3-1-0.7c-0.3-0.4-0.3-0.8-0.3-1.2c0.1-0.4,0.3-0.7,0.7-1c0.4-0.2,0.7-0.3,1.2-0.3
			c0.4,0.1,0.7,0.3,1,0.7c0.3,0.4,0.3,0.8,0.3,1.2c-0.1,0.4-0.3,0.7-0.7,1C177.1,203.3,176.7,203.3,176.3,203.3z"/>
		<path d="M181,200c-0.4-0.1-0.8-0.3-1-0.6c-0.3-0.4-0.4-0.7-0.3-1.2c0.1-0.4,0.3-0.7,0.6-1c0.3-0.3,0.7-0.4,1.1-0.3
			c0.4,0,0.8,0.2,1,0.6c0.3,0.4,0.4,0.7,0.3,1.2c-0.1,0.4-0.3,0.8-0.6,1C181.8,199.9,181.4,200,181,200z"/>
	</g>
	<g>
		<path d="M73.9,58.7c-1,0.1-2,0-3-0.4c-0.9-0.4-1.7-1.1-2.4-2s-1-1.9-1.1-2.9c-0.1-1,0.1-2,0.6-2.9c0.5-0.9,1.2-1.8,2.1-2.4
			c0.8-0.6,1.6-0.9,2.4-1.1c0.8-0.2,1.7-0.2,2.5,0l-0.4,2.2c-1.1-0.3-2.1-0.1-3.1,0.6c-0.6,0.4-1,0.9-1.2,1.5
			c-0.3,0.6-0.4,1.2-0.3,1.8s0.3,1.2,0.7,1.8c0.4,0.6,0.9,1,1.5,1.2c0.6,0.3,1.2,0.4,1.8,0.3c0.6-0.1,1.2-0.3,1.8-0.7
			c0.9-0.7,1.4-1.6,1.5-2.7l2.2,0.3c-0.1,0.8-0.3,1.6-0.7,2.4c-0.4,0.7-1.1,1.4-1.8,2C75.9,58.1,74.9,58.5,73.9,58.7z"/>
		<path d="M83.8,52.1c-1.1,0-2-0.3-2.9-0.8s-1.6-1.3-2.1-2.3c-0.5-1-0.7-2-0.6-3c0.1-1,0.4-2,1-2.8c0.6-0.9,1.4-1.6,2.5-2.1
			c1-0.5,2.1-0.8,3.1-0.8c1.1,0,2,0.3,2.9,0.8c0.9,0.5,1.6,1.3,2.1,2.3c0.5,1,0.7,2,0.6,3s-0.4,2-1,2.8S88,50.8,87,51.3
			C85.9,51.9,84.9,52.1,83.8,52.1z M87.4,48.1c0.3-0.5,0.5-1.1,0.5-1.7c0-0.6-0.1-1.2-0.4-1.9c-0.3-0.6-0.7-1.1-1.3-1.4
			c-0.5-0.3-1.1-0.5-1.7-0.6c-0.6,0-1.2,0.1-1.8,0.4c-0.6,0.3-1.1,0.7-1.4,1.2s-0.5,1.1-0.5,1.7c0,0.6,0.1,1.2,0.4,1.9
			s0.7,1.1,1.3,1.4c0.5,0.3,1.1,0.5,1.7,0.6s1.2-0.1,1.8-0.4C86.6,49.1,87,48.7,87.4,48.1z"/>
		<path d="M96.4,46.3c-1-0.2-1.9-0.6-2.7-1.3c-0.8-0.7-1.3-1.5-1.6-2.6c-0.3-1-0.4-2.1-0.1-3.1c0.2-1,0.7-1.9,1.5-2.6
			s1.7-1.3,2.8-1.7c1.1-0.3,2.2-0.4,3.2-0.2c1,0.2,1.9,0.6,2.7,1.3c0.8,0.7,1.3,1.5,1.7,2.6c0.3,1,0.4,2.1,0.1,3.1
			c-0.2,1-0.7,1.9-1.5,2.6s-1.7,1.3-2.8,1.7C98.6,46.5,97.5,46.5,96.4,46.3z M100.6,43c0.4-0.5,0.7-1,0.8-1.6s0.1-1.2-0.1-1.9
			c-0.2-0.7-0.5-1.2-1-1.6c-0.5-0.4-1-0.7-1.6-0.8c-0.6-0.1-1.2-0.1-1.8,0.1s-1.2,0.5-1.6,1c-0.4,0.5-0.7,1-0.8,1.6
			s-0.1,1.2,0.1,1.9c0.2,0.7,0.5,1.2,1,1.6c0.5,0.4,1,0.7,1.6,0.8c0.6,0.1,1.2,0.1,1.8-0.1C99.6,43.8,100.2,43.5,100.6,43z"/>
		<path d="M111.1,38.7l-1.3,1.8l0.4,2.8l-2.5,0.4l-1.7-11.1l2.5-0.4l0.8,5.2l4.1-5.9l2.8-0.4l-3.9,5.6l5.8,5.4l-3,0.4L111.1,38.7z"
			/>
		<path d="M129.6,37.4c0.4,0.5,0.5,1.1,0.5,1.8c0,1-0.4,1.7-1.2,2.2c-0.8,0.5-1.9,0.8-3.3,0.7l-5.8-0.1l0.2-11.2l5.5,0.1
			c1.4,0,2.4,0.3,3.1,0.8c0.7,0.5,1.1,1.2,1.1,2.1c0,0.5-0.1,1-0.4,1.4c-0.3,0.4-0.6,0.8-1.1,1C128.7,36.5,129.2,36.9,129.6,37.4z
			 M126.9,39.9c0.4-0.2,0.5-0.6,0.5-1c0-0.9-0.7-1.4-2-1.4l-3,0l0,2.8l3,0C126.1,40.2,126.6,40.1,126.9,39.9z M122.5,32.8l0,2.6
			l2.6,0c0.6,0,1.1-0.1,1.5-0.3c0.3-0.2,0.5-0.5,0.5-1s-0.2-0.8-0.5-1c-0.3-0.2-0.8-0.3-1.5-0.4L122.5,32.8z"/>
		<path d="M134.7,42.1c-0.8-0.6-1.5-1.4-1.8-2.4s-0.5-2-0.3-3.1s0.6-2,1.2-2.8c0.7-0.8,1.5-1.4,2.5-1.7c1-0.3,2.1-0.4,3.2-0.2
			c1.1,0.2,2.1,0.6,3,1.2c0.8,0.6,1.4,1.4,1.8,2.4c0.4,1,0.5,2,0.3,3.1c-0.2,1.1-0.6,2-1.3,2.8s-1.5,1.4-2.5,1.7
			c-1,0.3-2.1,0.4-3.2,0.2C136.6,43.1,135.6,42.7,134.7,42.1z M139.9,41c0.6-0.2,1.1-0.6,1.4-1.1s0.6-1.1,0.7-1.8s0.1-1.3-0.2-1.9
			s-0.6-1.1-1-1.5c-0.5-0.4-1-0.6-1.7-0.7c-0.7-0.1-1.3,0-1.8,0.2c-0.6,0.2-1.1,0.6-1.4,1.1c-0.4,0.5-0.6,1.1-0.7,1.8
			c-0.1,0.7-0.1,1.3,0.2,1.9c0.2,0.6,0.6,1.1,1,1.5s1,0.6,1.7,0.7S139.3,41.2,139.9,41z"/>
		<path d="M148.3,44.9c-0.7-0.8-1.2-1.7-1.4-2.7c-0.2-1-0.2-2,0.2-3.1c0.4-1,0.9-1.9,1.7-2.6c0.8-0.7,1.7-1.1,2.7-1.3
			c1-0.2,2.1-0.1,3.2,0.3c1.1,0.4,2,0.9,2.7,1.7c0.7,0.8,1.2,1.7,1.4,2.7c0.2,1,0.2,2-0.2,3.1c-0.4,1-0.9,1.9-1.7,2.6
			c-0.8,0.7-1.7,1.1-2.7,1.3c-1,0.2-2.1,0.1-3.2-0.3S149,45.7,148.3,44.9z M153.6,44.7c0.6-0.1,1.1-0.4,1.6-0.8c0.5-0.4,0.8-1,1-1.6
			c0.2-0.7,0.3-1.3,0.2-1.9c-0.1-0.6-0.4-1.1-0.8-1.6c-0.4-0.5-0.9-0.8-1.6-1s-1.2-0.3-1.8-0.1c-0.6,0.1-1.1,0.4-1.6,0.8
			c-0.5,0.4-0.8,1-1,1.6c-0.2,0.7-0.3,1.3-0.2,1.9c0.1,0.6,0.4,1.1,0.8,1.6c0.4,0.5,0.9,0.8,1.6,1C152.4,44.7,153,44.8,153.6,44.7z"
			/>
		<path d="M164.6,47.4l-2.1,0.7l-1.3,2.5l-2.3-1.2l5.2-9.9l2.3,1.2l-2.4,4.6l6.8-2.3l2.6,1.3l-6.4,2.3l1.5,7.8l-2.7-1.4L164.6,47.4z
			"/>
		<path d="M170.5,55.7c-0.5-0.7-0.9-1.3-1.1-1.9l1.8-1.1c0.2,0.6,0.5,1.1,0.9,1.7s0.9,1,1.4,1.4c0.6,0.4,1.1,0.7,1.5,0.7
			c0.4,0,0.7-0.1,0.9-0.4c0.2-0.2,0.2-0.5,0.1-0.7c-0.1-0.3-0.2-0.5-0.4-0.8c-0.2-0.3-0.5-0.6-0.9-1.1c-0.6-0.7-1-1.2-1.4-1.7
			c-0.3-0.5-0.5-1-0.6-1.6s0.1-1.2,0.6-1.8c0.4-0.5,0.9-0.9,1.5-1.1c0.6-0.2,1.3-0.3,2-0.1c0.8,0.2,1.6,0.5,2.4,1.1
			c0.6,0.4,1.1,0.9,1.6,1.4c0.5,0.5,0.8,1.1,1,1.6l-1.8,1.1c-0.5-1.1-1.2-1.9-2-2.5c-0.6-0.4-1.1-0.6-1.5-0.6c-0.4,0-0.7,0.1-1,0.5
			c-0.2,0.3-0.2,0.7,0,1s0.6,0.9,1.2,1.5c0.6,0.7,1,1.2,1.4,1.7c0.3,0.5,0.5,1,0.6,1.6s-0.1,1.2-0.6,1.8c-0.4,0.5-0.9,0.9-1.5,1.1
			c-0.6,0.2-1.3,0.3-2,0.1s-1.6-0.5-2.4-1.1C171.7,57,171.1,56.4,170.5,55.7z"/>
	</g>
	<g>
		<path d="M197.8,111.4C183.1,56.6,117,33,72.3,73.1C111.8,27.5,189.9,51.7,197.8,111.4z"/>
		<g>
			<polygon points="98.1,84.4 98.1,84.4 98.1,84.4 			"/>
			<path d="M72.3,125.9c-4,0-9.2,3.2-9.8,8.5h0.8c1.8-7.4,10.4-10.1,10.7-3.4c0.3,7.4-6.8,21.7-22,21.7c-5.8,0-9-3.8-9-10.7
				c0-5.8,1.9-12.8,5.4-20c2,0.5,4.2,0.7,6.9,0.7c16.6,0,30.4-5.8,39.7-13c8.5-6.4,13.4-13,13.4-18.1c0-4.5-3.9-7.2-10.2-7.2
				c-2,0-4.1,0.2-6.2,0.7c-3.5,0.7-7.6,2-12.3,3.9c-5.9,2.7-11.7,6.1-16.9,10.1c-1.7-0.3-3.5-0.4-5.5-0.4
				c-12.7,0-19.8,6.7-19.8,12.9c0,3.5,2.3,6.7,6.2,8.7c-4,6.8-6.2,13.6-6.2,19.6c0,8.9,5.2,13.8,14.5,13.8
				C73.8,153.7,86.9,125.9,72.3,125.9z M65,100.5c8.5,1.7,15.5,5.8,19.2,11.5l0.5-0.6c-3.5-5.4-10.4-9.7-18.7-11.7
				c5.6-4.8,11.6-8.4,17.8-10.8c5.5-2.2,10.8-3.3,15.1-3.3c4.5,0,6.7,1.4,6.7,4.3c0,0.9-0.3,2.1-0.9,3.3h0
				c-1.6,3.7-5.6,8.6-12.5,14.1c-9.6,7.6-23,14.4-36.8,14.4c-2.4,0-4.6-0.3-6.6-0.7C52.7,113.6,58.4,106.5,65,100.5z M38.5,112.2
				c0-5.4,6.6-12.4,19-12.4c1.3,0,2.7,0.1,4,0.2c-7.2,5.8-13.3,12.5-17.5,19.5C40.5,117.9,38.5,115.2,38.5,112.2z"/>
			<path d="M128.9,111.2c1.2,0.2,2.9-1.1,3.6-2.8c0.9-1.8,0.5-3.3-1-3.4c-1.2-0.1-2.8,1.1-3.6,2.8
				C127.2,109.6,127.6,111.1,128.9,111.2z"/>
			<path d="M191.3,156.7c-0.1,0.2-0.2,0.3-0.2,0.5c-0.6,0.8-1.2,1.7-1.7,2.5c-3.2,3.4-8.8,5.3-16.1,5.3c-12.3,0-24.1-12.5-36.3-15.6
				c0.7-2.4,1.1-5.1,1.1-8c0-8.2-1.3-16-0.6-20.1l0.3-1.3c0.1-0.1,0.1-0.2,0.1-0.3c1.1-2.2,3.9-3.4,4-4.9c0.1-1.1-0.5-2-1.5-2
				l-0.7,0.1c-1.8,0.8-1.1,3.6-2.5,6.2c-2,3.3-4.3,6.4-8.6,11.8h0c-6,8.4-15.3,17.5-21.7,17.5c-0.2,0-0.3,0-0.3-0.3
				c0-1.6,5-7.9,10.8-15.7c3.8-5.2,8.4-11.1,11.8-16.5c-2,2.3-5,3.2-5.5,1.2c-4.9,6.5-6,7.8-8.9,11.8c-1.1,1.4-2.1,2.7-3.1,4.1
				c-6.2,7.8-15.2,15.4-18.4,15.4l0,0c-0.2,0-0.3,0-0.3-0.3c0-1.6,5-7.9,10.8-15.7c3.8-5.2,8.3-11,11.9-16.1h-0.8
				c-1.7,2-4.5,2.6-4.9,0.9c-4.9,6.5-6,7.8-8.9,11.8c-1.1,1.5-2.3,3.1-3.4,4.5c-6.4,7.9-15.1,15-18.1,15c-0.2,0-0.3,0-0.3-0.3
				c0-1.6,5-7.9,10.8-15.7c3.8-5.2,8.3-11,11.9-16.1h-0.8c-1.7,2-4.5,2.6-4.9,0.9c-4.9,6.5-6,7.8-8.9,11.8
				c-5.3,6.9-10.4,13.5-10.4,17.2c0,1.9,1.1,3.2,2.6,3.2c2.5,0,8-4,13.7-9.6c-1.8,2.9-2.7,4.9-2.7,6.4c0,1.9,1.1,3.2,2.6,3.2
				c2.6,0,8.1-4.1,13.5-9.5c-1.5,2.5-2.5,4.6-2.5,6.2c0,1.9,1.1,3.2,2.6,3.2c7,0,16.6-9.8,22.8-18.4h0c2.3-2.9,4.6-5.8,6.3-8.5
				c-1.6,8.4-2,18.2-4.4,25.9c-1.9-0.3-3.9-0.5-6-0.5c-9.3,0-16.5,3.6-16.5,8.4c0,10.1,21.2,10.4,27.2-5.4
				c12.1,4,24.4,18.7,36.7,18.7c4.2,0,7.9-1,11-2.9c-4.9,6.3-10.3,12.1-17.4,16.8c-11.9,7.9-25.9,12.3-40.2,12.9
				c-23.5,0.9-45.1-9.6-60.9-26.6c14.3,20.9,37.4,33.2,62.9,32.2c27-1,51.6-18.6,62.7-43.1c0.3-0.6,0.7-1.3,0.9-2H191.3z M116.8,162
				L116.8,162c-4.6,0-5.4-3.3-5.2-5.7c0.5-4.2,6.5-7.5,14.2-7.5c1.9,0,3.7,0.3,5.5,0.5C128.6,157.4,123.1,162,116.8,162z"/>
			<path d="M164.2,111.2c1.2,0.2,2.9-1.1,3.6-2.8c0.9-1.8,0.5-3.3-1-3.4c-1.2-0.1-2.8,1.1-3.6,2.8
				C162.5,109.6,162.9,111.1,164.2,111.2z"/>
			<path d="M221.6,130.8c-6.2,8.2-19.2,17.7-25.2,17.7c-0.5,0-0.8-0.3-0.8-1.1c0-2.6,3.2-9.1,7.8-15.3c2.7-0.3,6.4-1.2,9.7-2.9
				c8.7-4.4,11.9-12.1,5.4-12.1c-7.1,0-15,6.5-20.1,13.7l0,0c-6.7,9.3-15.5,17.5-18.7,17.5c-0.2,0-0.3,0-0.3-0.3
				c0-1.6,5.2-8,11-15.7c3-3.9,4.7-7.7,4.7-10.6c0-2.6-1.7-4.4-4.3-4.4c-0.9,0-1.7,0.3-2.6,0.7c-2.6,1.3-5.7,4.6-9,8.6
				c1.1-1.9,1.7-3.7,1.7-5.3c0-2.5-1.3-4-3.3-4c-0.3,0-0.5,0-0.9,0.1c-1.7,0.4-6.2,5.2-12.5,13.4H164c-6,8.4-15.3,17.5-21.7,17.5
				c-0.2,0-0.3,0-0.3-0.3c0-1.6,5-7.9,10.8-15.7c3.8-5.2,8.4-11.1,11.8-16.5c-2,2.3-5,3.2-5.5,1.2c-4.9,6.5-6,7.8-8.9,11.8
				c-5.3,6.9-10.4,13.5-10.4,17.2c0,1.9,1.1,3.2,2.6,3.2c7,0,16.6-9.8,22.8-18.4h0c6.2-7.9,10.5-12.4,11.6-12.4
				c0.2,0,0.4,0.3,0.4,1.1c0,4.3-7.9,14.5-17.8,29.8c1.3-0.6,5.1-0.5,4.8,0.5c5-6.8,17.5-27.2,24.3-30.9c0.7-0.3,1.3-0.5,1.8-0.5
				c1.1,0,1.5,0.5,1.5,1.5c0,2-2.2,6-5.6,10.3c-4.9,6.3-9.2,12.2-9.2,15.8c0,1.9,1.1,3.2,2.6,3.2c3.1,0,9.6-5.9,15.2-12.5
				c-1.2,2.7-1.9,5.2-1.9,7.4c0,1.3,0.5,5.4,3.4,5.4c6.5,0,20.2-10.1,26.4-18.6H221.6z M206.6,127.9c5-6.2,9.3-9.8,11.8-9.8l0,0
				c2.8,0,0.9,6.8-5.7,10.3c-2.7,1.4-5.9,2.5-8.7,2.9C204.8,130.1,205.7,128.9,206.6,127.9z"/>
		</g>
	</g>
</g>
</svg>
