<?xml version="1.0" encoding="utf-8"?>
<!-- Generator: Adobe Illustrator 28.2.0, SVG Export Plug-In . SVG Version: 6.00 Build 0)  -->
<svg version="1.1" id="Laag_1" xmlns="http://www.w3.org/2000/svg" xmlns:xlink="http://www.w3.org/1999/xlink" x="0px" y="0px"
	 width="20px" height="20px" viewBox="0 0 20 20" style="enable-background:new 0 0 20 20;" xml:space="preserve">
<style type="text/css">
	.st0{fill:#D98A3F;}
</style>
<path id="Path_40" class="st0" d="M0,10C0,4.5,4.5,0,10,0s10,4.5,10,10s-4.5,10-10,10S0,15.5,0,10z M14.5,11.7
	c0.2,0,0.4-0.2,0.4-0.4c0,0,0,0,0,0V8.8c0-0.2-0.2-0.4-0.4-0.4c0,0,0,0,0,0h-9c-0.2,0-0.4,0.2-0.4,0.4c0,0,0,0,0,0v2.5
	c0,0.2,0.2,0.4,0.4,0.4c0,0,0,0,0,0L14.5,11.7z"/>
</svg>
