<?xml version="1.0" encoding="utf-8"?>
<!-- Generator: Adobe Illustrator 28.2.0, SVG Export Plug-In . SVG Version: 6.00 Build 0)  -->
<svg version="1.1" id="Laag_1" xmlns="http://www.w3.org/2000/svg" xmlns:xlink="http://www.w3.org/1999/xlink" x="0px" y="0px"
	 width="48px" height="48px" viewBox="0 0 48 48" style="enable-background:new 0 0 48 48;" xml:space="preserve">
<style type="text/css">
	.st0{fill:#418C9F;}
</style>
<g>
	<path class="st0" d="M0,3.9v39.4h4.6v1.4H9v-1.4h30v1.4h4.4v-1.4H48V3.9H0z M34.7,7.3c1.6,0,2.9,1.3,2.9,2.9s-1.3,2.9-2.9,2.9
		c-1.6,0-2.9-1.3-2.9-2.9C31.9,8.6,33.1,7.3,34.7,7.3z M27.3,7.3c1.6,0,2.9,1.3,2.9,2.9s-1.3,2.9-2.9,2.9s-2.9-1.3-2.9-2.9
		S25.7,7.3,27.3,7.3z M19.3,7.6h2.1v5.6h-2.1V7.6z M15,7.6h2.1v5.6H15V7.6z M3.1,7.5h9.1v5.1H3.1V7.5z M44.4,41.6H3V15.5h41.4V41.6z
		 M42.6,13c-1.6,0-2.9-1.3-2.9-2.9s1.3-2.9,2.9-2.9c1.6,0,2.9,1.3,2.9,2.9C45.4,11.8,44.1,13,42.6,13z"/>
	<path class="st0" d="M37.5,33h-1v1.9h-1.4c-0.1-1.7-0.5-3.6-0.7-5.3c-0.6-4.2,1.6-2.5,1.6-2.5s0.3,0.3,1.7,1.3
		c2.2,1.9,1.2-2-0.7-4.6c-2-2.6-2.5-3.2-2.7-0.6c-0.2,2.6-3.4,3.1-3.4,3.1s-0.5,0.2-3.5,0.8c-4.4,0.5-4.3,5.6-4.3,5.6
		c-2.8-1.7,1.2-5.3,1.2-5.3c-6.3,0-9.3,4.2-10.7,7.6h-2.2v-1.1h-1v7h27.2L37.5,33L37.5,33z"/>
	<path class="st0" d="M21.7,25c-0.2-0.5-0.3-1-0.2-1.4c0.1-0.4,0.3-0.7,0.6-1.1c0.4-0.4,0.7-1,0.7-1.7s-0.5-1.2-1-1.4
		c0.2,0.5,0.3,1,0.2,1.4c-0.1,0.4-0.3,0.7-0.6,1.1c-0.4,0.4-0.7,1.1-0.6,1.7C20.8,24.3,21.2,24.8,21.7,25z"/>
	<path class="st0" d="M24.4,25.6c-0.1-0.4-0.1-0.8-0.1-1c0.1-0.2,0.2-0.5,0.4-0.7c0.3-0.3,0.6-0.8,0.5-1.3c0-0.5-0.4-0.9-0.9-1
		c0.1,0.4,0.1,0.8,0.1,1c-0.1,0.2-0.2,0.4-0.5,0.7s-0.5,0.8-0.4,1.4C23.6,25.1,24,25.5,24.4,25.6z"/>
</g>
</svg>
