<?xml version="1.0" encoding="utf-8"?>
<!-- Generator: Adobe Illustrator 28.2.0, SVG Export Plug-In . SVG Version: 6.00 Build 0)  -->
<svg version="1.1" id="Laag_1" xmlns="http://www.w3.org/2000/svg" xmlns:xlink="http://www.w3.org/1999/xlink" x="0px" y="0px"
	 width="48px" height="48px" viewBox="0 0 48 48" style="enable-background:new 0 0 48 48;" xml:space="preserve">
<style type="text/css">
	.st0{fill:#418C9F;}
</style>
<g>
	<g>
		<g>
			<path class="st0" d="M43.8,43.1c0,0,0.9,4.9-3.7,4.9c-5.2,0-26.8,0-31.5,0c-3.6,0-3.2-4.2-3.2-4.2V21h38.4V43.1z"/>
		</g>
	</g>
	<g>
		<g>
			<path class="st0" d="M0,27c0,1,0.8,1.7,1.7,1.7h3.2c1,0,1.7-0.8,1.7-1.7l0,0c0-1-0.8-1.7-1.7-1.7H1.7C0.8,25.3,0,26,0,27L0,27z"
				/>
		</g>
	</g>
	<g>
		<g>
			<path class="st0" d="M41.4,27c0,1,0.8,1.7,1.7,1.7h3.2c1,0,1.7-0.8,1.7-1.7l0,0c0-1-0.8-1.7-1.7-1.7h-3.2
				C42.2,25.3,41.4,26,41.4,27L41.4,27z"/>
		</g>
	</g>
	<g>
		<g>
			<path class="st0" d="M46.1,18.5c0,0.9-0.7,1.6-1.6,1.6H4.7c-0.9,0-1.6-0.7-1.6-1.6l0,0c0-0.9,0.7-1.6,1.6-1.6h39.8
				C45.4,16.9,46.1,17.6,46.1,18.5L46.1,18.5z"/>
		</g>
	</g>
	<g>
		<g>
			<path class="st0" d="M19.7,14c-0.6-1-1-2-1.1-3.2c-0.1-0.6-0.1-1.2,0.1-1.8c0.1-0.6,0.5-1.2,0.9-1.6c0.6-0.7,0.7-1.8,0.6-2.9
				c0-1.1-0.2-2.2-0.4-3.3c0.6,1,0.9,2.1,1.1,3.2c0.2,1.1,0.1,2.4-0.6,3.5c-0.7,0.7-0.9,1.7-0.9,2.8C19.2,11.8,19.4,12.9,19.7,14z"
				/>
		</g>
	</g>
	<g>
		<g>
			<path class="st0" d="M23.8,14c-0.6-1-1-2-1.1-3.2c-0.1-0.6-0.1-1.2,0.1-1.8c0.1-0.6,0.5-1.2,0.9-1.6c0.6-0.7,0.7-1.8,0.7-2.9
				c0-1.1-0.2-2.2-0.4-3.3c0.6,1,0.9,2.1,1.1,3.2C25,5.5,25,6.8,24.2,7.9c-0.7,0.7-0.9,1.7-0.9,2.8C23.3,11.8,23.5,12.9,23.8,14z"/>
		</g>
	</g>
	<g>
		<g>
			<path class="st0" d="M27.6,14c-0.6-1-1-2-1.1-3.2c-0.1-0.6-0.1-1.2,0.1-1.8c0.1-0.6,0.5-1.2,0.9-1.6c0.6-0.7,0.7-1.8,0.7-2.9
				c0-1.1-0.2-2.2-0.5-3.3c0.6,1,0.9,2.1,1.1,3.2c0.2,1.1,0.2,2.4-0.6,3.5c-0.7,0.7-0.9,1.7-0.9,2.8C27.2,11.8,27.4,12.9,27.6,14z"
				/>
		</g>
	</g>
</g>
</svg>
