<?xml version="1.0" encoding="utf-8"?>
<!-- Generator: Adobe Illustrator 28.2.0, SVG Export Plug-In . SVG Version: 6.00 Build 0)  -->
<svg version="1.1" id="Laag_2_00000090999673732446205070000007885713232311274918_"
	 xmlns="http://www.w3.org/2000/svg" xmlns:xlink="http://www.w3.org/1999/xlink" x="0px" y="0px" width="961.2px" height="69.8px"
	 viewBox="0 0 961.2 69.8" style="enable-background:new 0 0 961.2 69.8;" xml:space="preserve">
<style type="text/css">
	.st0{fill:#D98A35;}
</style>
<g>
	<g id="XMLID_00000036230417026547438970000013342195374170178181_">
		<g>
			<path class="st0" d="M662.8,26.9l-22.9,16.2l0,0l8.7,26.5l-23-16.5l-22.9,16.6l0,0l8.7-26.5l-23.3-16.3h28.7l8.8-27h0.1l8.8,27
				H662.8z M632.8,40.8l11.4-7.9h-14l-4.5-13.8l-4.5,13.8h-14.3l11.6,8L614.1,54l11.5-8.3l11.6,8.5l0,0l0,0l0,0L632.8,40.8z"/>
			<path class="st0" d="M760.9,26.9L738,43.1l0,0l8.7,26.5l-23-16.5l-22.9,16.6l0,0l8.7-26.5l-23.3-16.3h28.7l8.8-27h0.1l8.8,27
				H760.9z M730.9,40.8l11.4-7.9h-14l-4.5-13.8l-4.5,13.8H705l11.6,8L712.2,54l11.5-8.3l11.6,8.5l0,0l0,0l0,0L730.9,40.8z"/>
			<path class="st0" d="M859,26.9l-22.9,16.2l0,0l8.7,26.5l-23-16.5l-22.9,16.6l0,0l8.7-26.5l-23.3-16.3H813l8.8-27h0.1l8.8,27H859z
				 M829,40.8l11.4-7.9h-14l-4.5-13.8l-4.5,13.8h-14.3l11.6,8L810.3,54l11.5-8.3l11.6,8.5l0,0l0,0l0,0L829,40.8z"/>
			<path class="st0" d="M957,26.9l-22.9,16.2l0,0l8.7,26.5l-23-16.5l-22.9,16.6l0,0l8.7-26.5l-23.3-16.3H911l8.8-27h0.1l8.8,27H957z
				 M927,40.8l11.4-7.9h-14l-4.5-13.8l-4.5,13.8h-14.3l11.6,8L908.3,54l11.5-8.3l11.6,8.5l0,0l0,0l0,0L927,40.8z"/>
			<polygon points="637.2,54.2 637.2,54.2 637.1,54.2 			"/>
			<polygon points="602.6,69.8 602.5,69.8 602.5,69.8 			"/>
			<path d="M602.5,69.8L602.5,69.8L602.5,69.8z"/>
			<path class="st0" d="M564.8,27l-22.9,16.2l8.7,26.5l-23-16.5l-22.9,16.7l0,0l8.7-26.5l0,0L490.1,27h28.7l8.8-27h0.1l8.8,27H564.8
				z M534.8,40.9l11.4-7.9h-14l-3-9.4l0,0v23.3l10.1,7.4L534.8,40.9L534.8,40.9z"/>
			<polygon points="504.6,69.9 504.6,70 504.5,70 			"/>
			<polygon class="st0" points="444,43.1 452.7,69.7 429.6,53.2 406.7,69.8 406.7,69.8 415.4,43.3 392.2,26.9 420.9,26.9 
				429.7,-0.1 429.8,-0.1 438.6,26.9 466.9,26.9 			"/>
			<polygon points="406.7,69.8 406.7,69.8 406.6,69.8 			"/>
			<path d="M406.6,69.8L406.6,69.8L406.6,69.8z"/>
			<polygon class="st0" points="345.9,43.1 354.6,69.7 331.5,53.2 308.6,69.8 308.6,69.8 317.3,43.3 294.1,26.9 322.8,26.9 
				331.6,-0.1 331.7,-0.1 340.5,26.9 368.8,26.9 			"/>
			<polygon points="308.6,69.8 308.6,69.8 308.5,69.8 			"/>
			<path d="M308.5,69.8L308.5,69.8L308.5,69.8z"/>
			<polygon class="st0" points="247.9,43.1 256.6,69.7 233.5,53.2 210.6,69.8 210.6,69.8 219.3,43.3 196.1,26.9 224.8,26.9 
				233.6,-0.1 233.7,-0.1 242.5,26.9 270.8,26.9 			"/>
			<polygon class="st0" points="149.8,43.1 158.5,69.7 135.4,53.2 112.5,69.8 112.5,69.8 121.2,43.3 98,26.9 126.7,26.9 135.5,-0.1 
				135.6,-0.1 144.4,26.9 172.7,26.9 			"/>
			<polygon class="st0" points="51.8,43.2 60.5,69.8 37.4,53.2 14.5,69.9 14.5,69.9 23.2,43.4 0,27 28.7,27 37.5,0 37.6,0 46.4,27 
				74.7,27 			"/>
			<polygon points="210.6,69.7 210.6,69.7 210.5,69.7 			"/>
			<path d="M210.5,69.7L210.5,69.7L210.5,69.7z"/>
		</g>
	</g>
</g>
</svg>
