<?xml version="1.0" encoding="UTF-8"?>
<svg id="a" data-name="Laag 1" xmlns="http://www.w3.org/2000/svg" viewBox="0 0 36.89 36.89">
  <defs>
    <style>
      .b {
        fill: #418c9f;
        stroke-width: 0px;
      }
    </style>
  </defs>
  <path class="b" d="M18.44,0C8.26,0,0,8.26,0,18.44s8.26,18.44,18.44,18.44,18.44-8.26,18.44-18.44S28.63,0,18.44,0ZM19.23,33.83v-2.75c0-.43-.35-.78-.78-.78s-.78.35-.78.78v2.75c-7.89-.4-14.2-6.71-14.6-14.6h2.63c.43,0,.78-.35.78-.78s-.35-.78-.78-.78h-2.63c.4-7.89,6.71-14.2,14.61-14.6,0,.01,0,.02,0,.04v2.87c0,.43.35.78.78.78s.78-.35.78-.78v-2.87s0-.02,0-.04c7.89.4,14.21,6.71,14.61,14.6h-2.65c-.43,0-.78.35-.78.78s.35.78.78.78h2.65c-.4,7.89-6.71,14.2-14.6,14.6Z"/>
  <path class="b" d="M22.02,9.24c-.79.79-1.27,2.18-1.1,3.32l-2.88,2.88c-.51-.38-1.24-.35-1.7.12-.51.51-.51,1.33,0,1.84.32.31.78.44,1.21.35v.34c-.35-.05-.72.06-.98.32-.45.45-.45,1.17,0,1.62.41.41,1.05.45,1.5.11l2.54,2.54c-.15,1.01.27,2.23.97,2.93.99.99,2.6.99,3.59,0,.99-.99.99-2.6,0-3.59-.7-.7-1.92-1.12-2.93-.97l-2.29-2.38s0,0,0,0l-.06-1.4,2.88-2.88c1.14.17,2.53-.31,3.32-1.1,1.12-1.12,1.12-2.94,0-4.06-1.12-1.12-2.94-1.12-4.06,0ZM19.62,17.04l.12,1.97.08-.1s-.04.06-.06.08c0,0-.02,0-.02.02l2.13,2.13c-.07.02-.13.04-.19.07-.21.09-.39.21-.55.37-.18.18-.31.39-.4.63-.01.04-.02.08-.04.11l-2.43-2.43h0s-.19-.19-.19-.19c-.02.03-.08.09-.11.12-.32.32-.85.32-1.18,0-.32-.32-.32-.85,0-1.18.2-.2.49-.28.76-.22h0s.26-.01.26-.01v-.95l-.07-.03s-.03,0-.03-.01l-.07-.06c-.35.16-.77.08-1.05-.2-.37-.37-.37-.96,0-1.33.37-.37.96-.37,1.33,0,0,0,.09.13.1.16l.23-.23h0l2.75-2.75c.02.08.05.15.08.22.1.23.24.44.42.62.2.2.44.35.71.45.04.02.08.03.12.04l-2.73,2.73Z"/>
</svg>