<?xml version="1.0" encoding="utf-8"?>
<!-- Generator: Adobe Illustrator 28.2.0, SVG Export Plug-In . SVG Version: 6.00 Build 0)  -->
<svg version="1.1" id="a" xmlns="http://www.w3.org/2000/svg" xmlns:xlink="http://www.w3.org/1999/xlink" x="0px" y="0px"
	 width="48px" height="48px" viewBox="0 0 48 48" style="enable-background:new 0 0 48 48;" xml:space="preserve">
<style type="text/css">
	.st0{fill:#418C9F;}
</style>
<path class="st0" d="M37.1,30.5c0,0,1,11.2-12.9,17.5l0,0l0,0l0,0C9.9,41.7,10.9,30.5,10.9,30.5c0.8,3.5,2.2,5.9,3.9,7.8
	c-1.2-2.7-1-4.7-1-4.7c1,4.1,3.1,5.9,4.9,6.9c-12.6-19.4-5.9-31-5.9-31c1.2,0.6,2.2,1.2,3.3,2c0.2,0.2,0.4,0.2,0.6,0.4
	c0.2,0.2,0.4,0.4,0.6,0.6c0.6,0.4,1,1,1.6,1.4c0.4,0.4,0.8,0.8,1,1.2c0,0,0,0.2,0.2,0.2c0.2,0.2,0.4,0.6,0.6,0.8c0.8,1,1.4,2,2,3.1
	c0.4,0.6,0.6,1.2,0.8,1.6c0.2-0.6,0.4-1.2,0.8-1.6c0.4-1,1-2,1.6-2.9c0.2-0.2,0.4-0.6,0.6-0.8c0.2-0.2,0.4-0.4,0.6-0.8
	c0.2-0.4,0.6-0.8,1-1c0.4-0.4,0.6-0.8,1-1.2c0,0,0.4-0.4,0.8-0.8l0,0c0.4-0.4,0.6-0.6,1-0.8c0.8-0.6,1.8-1.4,2.9-2
	c0,0,7.1,11.4-4.9,31.8c1.8-0.8,4.1-2.9,5.1-7.1c0,0,0.2,2-1,4.7C34.8,36.6,36.2,33.9,37.1,30.5L37.1,30.5z"/>
<path class="st0" d="M30.9,7.8v1.6c-0.4,0.2-0.8,0.6-1,0.8h-1.4c-0.6,0.2-0.6-0.4-0.6-0.4v-2c0,0,0-0.4,0.4-0.4h2
	C30.9,7.4,30.9,7.8,30.9,7.8L30.9,7.8z"/>
<path class="st0" d="M30.9,6.2c0,0,0,0.4-0.4,0.4h-2.2c-0.4,0-0.4-0.4-0.4-0.4v-2c0,0,0-0.4,0.4-0.4h2c0.4,0,0.4,0.4,0.4,0.4
	L30.9,6.2z"/>
<path class="st0" d="M28.3,11.1h0.6c-0.4,0.4-0.8,0.8-1,1.2v-0.6C27.9,11.7,27.9,11.1,28.3,11.1L28.3,11.1z"/>
<path class="st0" d="M27.1,11.5v1.8c-0.2,0.2-0.4,0.4-0.6,0.8h-2c-0.4,0-0.4-0.4-0.4-0.4v-2c0,0,0-0.4,0.4-0.4h2
	C27.1,11.1,27.1,11.5,27.1,11.5L27.1,11.5z"/>
<path class="st0" d="M27.1,9.8c0,0,0,0.4-0.4,0.4h-2.2C24,10.3,24,9.8,24,9.8v-2c0,0,0-0.4,0.4-0.4h2c0.4,0,0.4,0.4,0.4,0.4
	L27.1,9.8L27.1,9.8z"/>
<path class="st0" d="M27.1,6.2c0,0,0,0.4-0.4,0.4h-2.2C24,6.6,24,6.2,24,6.2v-2c0,0,0-0.4,0.4-0.4h2c0.4,0,0.4,0.4,0.4,0.4L27.1,6.2
	z"/>
<path class="st0" d="M27.1,2.5c0,0,0,0.4-0.4,0.4h-2.2C24,2.9,24,2.5,24,2.5v-2c0,0,0-0.4,0.4-0.4h2c0.4,0,0.4,0.4,0.4,0.4L27.1,2.5
	L27.1,2.5z"/>
<path class="st0" d="M24.4,14.9h1.4c-0.6,1-1.2,1.8-1.6,2.9C24,17.6,24,17.4,24,17.4v-2C24,15.4,24,14.9,24.4,14.9L24.4,14.9z"/>
<path class="st0" d="M22.8,17.4c0,0,0,0.2-0.2,0.4c-0.6-1-1.2-2-1.8-2.9h1.6c0.4,0,0.4,0.4,0.4,0.4V17.4L22.8,17.4z"/>
<path class="st0" d="M22.8,13.7c0,0,0,0.4-0.4,0.4h-2.2c0,0,0,0-0.2,0c0,0,0-0.2-0.2-0.2c0-0.2,0-0.2,0-0.2v-2c0,0,0-0.4,0.4-0.4h2
	c0.4,0,0.4,0.4,0.4,0.4L22.8,13.7L22.8,13.7z"/>
<path class="st0" d="M22.8,9.8c0,0,0,0.4-0.4,0.4h-2.2c-0.4,0-0.2-0.4-0.2-0.4v-2c0,0,0-0.4,0.4-0.4h2c0.4,0,0.4,0.4,0.4,0.4V9.8
	L22.8,9.8z"/>
<path class="st0" d="M22.8,6.2c0,0,0,0.4-0.4,0.4h-2.2c-0.4,0-0.2-0.4-0.2-0.4v-2c0,0,0-0.4,0.4-0.4h2c0.4,0,0.4,0.4,0.4,0.4V6.2z"
	/>
<path class="st0" d="M22.8,2.5c0,0,0,0.4-0.4,0.4h-2.2c-0.4,0-0.2-0.4-0.2-0.4v-2c0,0,0-0.4,0.4-0.4h2c0.4,0,0.4,0.4,0.4,0.4V2.5
	L22.8,2.5z"/>
<path class="st0" d="M18.7,11.7v1c-0.4-0.6-0.8-1-1.4-1.4h1.2C18.9,11.3,18.7,11.7,18.7,11.7z"/>
<path class="st0" d="M18.7,10.1c0,0,0,0.4-0.4,0.4h-2c0-0.2-0.2-0.2-0.4-0.4V8c0,0,0-0.4,0.4-0.4h2c0.6,0,0.4,0.4,0.4,0.4V10.1
	L18.7,10.1z"/>
<path class="st0" d="M18.7,6.2c0,0,0,0.4-0.4,0.4h-2c-0.4,0-0.4-0.4-0.4-0.4v-2c0,0,0-0.4,0.4-0.4h2c0.4,0,0.4,0.4,0.4,0.4V6.2z"/>
</svg>
