<?xml version="1.0" encoding="UTF-8"?>
<svg id="a" data-name="Laag 1" xmlns="http://www.w3.org/2000/svg" viewBox="0 0 40.43 35.26">
  <defs>
    <style>
      .b {
        fill: #418c9f;
        stroke-width: 0px;
      }
    </style>
  </defs>
  <path class="b" d="M11.57,13.71C4.58,16.8,0,23.38,0,23.38c.04.04,3.47,3.97,6.32,2.94l.1.7c-.36.13-.72.19-1.1.19-1.96,0-4.02-1.63-5.08-2.62,1.5,1.88,5.56,6.49,10.83,9,3.94-6.71,1.11-17.7.5-19.88ZM7.3,24.01c-.97,0-1.76-.79-1.76-1.76s.79-1.75,1.76-1.75,1.76.79,1.76,1.75-.79,1.76-1.76,1.76Z"/>
  <path class="b" d="M34.24,21.21c-3.08-3.39-9.21-8.95-16.26-8.95-1.97,0-3.87.44-5.65,1.14.6,2.05,3.64,13.35-.51,20.52,1.93.82,4,1.34,6.16,1.34,7.48,0,13.91-6.25,16.78-9.53l5.67,3.24v-10.42l-6.19,2.66Z"/>
  <path class="b" d="M20.28,4.04c.35.42.73.82,1.11,1.21.37.39.71.77,1,1.16.28.4.47.84.51,1.25.05.41-.07.84-.33,1.25-.26.41-.63.78-1.03,1.14l.03.07c.54-.13,1.04-.41,1.46-.83.42-.41.73-1.04.68-1.69-.04-.66-.39-1.21-.76-1.63-.37-.44-.83-.77-1.3-1.04-.45-.27-.87-.6-1.17-1.03-.3-.43-.41-.96-.37-1.4.01-.22.06-.43.13-.65.07-.21.18-.42.32-.62.27-.41.63-.78,1.02-1.15l-.03-.07c-.54.13-1.04.43-1.44.85-.4.42-.7,1.04-.61,1.67.08.64.47,1.1.81,1.52Z"/>
  <path class="b" d="M26.51,4.04c.35.42.72.82,1.11,1.21.37.39.71.77,1,1.16.28.4.47.84.51,1.25.05.41-.07.84-.34,1.25-.26.41-.63.78-1.03,1.14l.03.07c.54-.13,1.04-.41,1.46-.83.42-.41.73-1.04.68-1.69-.04-.66-.39-1.21-.76-1.63-.37-.44-.84-.77-1.31-1.04-.45-.27-.87-.6-1.17-1.03-.3-.43-.41-.96-.37-1.4.02-.22.06-.43.12-.65.07-.21.18-.42.32-.62.27-.41.63-.78,1.02-1.15l-.03-.07c-.55.13-1.04.43-1.45.85-.39.42-.7,1.04-.61,1.67.08.64.47,1.1.81,1.52Z"/>
  <path class="b" d="M13.47,4.04c.35.42.72.82,1.1,1.21.37.39.71.77,1,1.16.29.4.47.84.51,1.25.05.41-.07.84-.33,1.25-.26.41-.63.78-1.03,1.14l.04.07c.54-.13,1.04-.41,1.46-.83.42-.41.73-1.04.69-1.69-.04-.66-.39-1.21-.76-1.63-.37-.44-.84-.77-1.3-1.04-.45-.27-.87-.6-1.17-1.03-.3-.43-.41-.96-.37-1.4.01-.22.06-.43.13-.65.07-.21.18-.42.32-.62.27-.41.63-.78,1.02-1.15l-.04-.07c-.55.13-1.04.43-1.45.85-.4.42-.7,1.04-.62,1.67.08.64.47,1.1.81,1.52Z"/>
</svg>