<?xml version="1.0" encoding="utf-8"?>
<!-- Generator: Adobe Illustrator 28.2.0, SVG Export Plug-In . SVG Version: 6.00 Build 0)  -->
<svg version="1.1" id="Laag_1" xmlns="http://www.w3.org/2000/svg" xmlns:xlink="http://www.w3.org/1999/xlink" x="0px" y="0px"
	 width="48px" height="48px" viewBox="0 0 48 48" style="enable-background:new 0 0 48 48;" xml:space="preserve">
<style type="text/css">
	.st0{fill:#418C9F;}
</style>
<g>
	<path class="st0" d="M47.8,32.9C47.8,32.9,47.8,32.9,47.8,32.9l0.1-0.5c-6.4,5.1-13.6,6.2-20.2,5.4l0,0c1.2,0.1,2.3,0.2,3.5,0.2
		c5.5,0,11.2-1.5,16.5-5.7c-0.9-3.2-4.5-7.1-9.9-7.1c-1.4,0-3,0.3-4.6,0.9c-1.5,0.6-2.6,0.8-3.6,0.8c-0.8,0-1.5-0.2-2-0.5l-0.5-0.4
		C25,24.5,24.3,20.6,20,19c-3.6-1.6-7.2-2.4-10.3-2.4c-4.3,0-7.7,1.5-9,4.3c-0.5,1-0.6,2.2-0.4,3.4c0-0.1-0.1-0.2-0.1-0.2v-0.2
		c-0.1,0.2-0.1,0.5,0,0.7v0.1c0,0,0.1,0.1,0.2,0.2c-0.1-0.1-0.2-0.2-0.2-0.2c0,0,0,0.3,0,0.5c0,0,0,0,0,0l0,0.7c0,0,0-0.5,0.1-0.6
		c0,0.1,0,0.2,0,0.2v11.5c0,0,11.3,11,26.6,10.2c0,0,18.1,0.1,21.2-5.7v-7.5C47.9,33.5,47.9,33.2,47.8,32.9z M46.5,32.1
		c-3.5,2.6-7.4,4.3-11.8,4.8l6.8-9.8C44.1,28.2,45.9,30.3,46.5,32.1z M40.2,26.6l-7.3,10.4c-0.5,0-1.1,0.1-1.6,0.1
		c-1,0-1.9-0.1-2.9-0.1l7.4-10.4c0.7-0.1,1.4-0.2,2-0.2C38.6,26.3,39.4,26.4,40.2,26.6z M33.5,27.2l-6.8,9.6
		c-1.8-0.3-3.6-0.7-5.2-1.1l5.6-8.2c0.7,0.4,1.5,0.6,2.5,0.6C30.7,28,32,27.7,33.5,27.2z M26,26.5L20,35.2c-1.2-0.4-2.3-0.8-3.2-1.2
		c-0.4-0.2-0.7-0.3-1.1-0.5l7.4-10.9c0.4,0.5,0.8,1.1,1.1,1.6C24.8,25,25.3,25.8,26,26.5z M6.4,28.1l6.8-10.2c1.3,0.2,2.7,0.6,4,1
		L9.5,30.1C8.4,29.5,7.3,28.8,6.4,28.1z M6.2,29.2C6.1,29.1,6,29.1,5.9,29C6,29.1,6.1,29.1,6.2,29.2z M5.6,28.8
		c-0.1,0-0.1-0.1-0.2-0.1C5.4,28.7,5.5,28.7,5.6,28.8z M9.4,31.3c-0.1-0.1-0.2-0.1-0.3-0.2C9.2,31.1,9.3,31.2,9.4,31.3z M8.7,30.8
		c-0.1-0.1-0.2-0.1-0.3-0.2C8.6,30.7,8.7,30.8,8.7,30.8z M8.1,30.4c-0.1-0.1-0.2-0.1-0.3-0.2C7.9,30.3,8,30.4,8.1,30.4z M7.4,30
		c-0.1-0.1-0.2-0.1-0.2-0.2C7.2,29.9,7.3,29.9,7.4,30z M6.8,29.6c-0.1-0.1-0.2-0.1-0.2-0.2C6.6,29.5,6.7,29.5,6.8,29.6z M10.9,32.1
		c-0.1-0.1-0.2-0.1-0.3-0.2C10.7,32,10.8,32,10.9,32.1z M10.2,31.7c-0.1-0.1-0.2-0.1-0.3-0.2C10,31.6,10.1,31.6,10.2,31.7z
		 M15.6,34.5c-0.1,0-0.2-0.1-0.3-0.1C15.4,34.4,15.5,34.4,15.6,34.5z M14.8,34.1c-0.1-0.1-0.2-0.1-0.3-0.2
		C14.6,34,14.7,34.1,14.8,34.1z M19.6,19.9L19.6,19.9c1.1,0.4,1.9,1,2.6,1.6l-7.8,11.3c-1.3-0.6-2.5-1.3-3.6-1.9l7.9-11.4
		C19,19.6,19.3,19.7,19.6,19.9L19.6,19.9z M14,33.7c-0.1-0.1-0.2-0.1-0.3-0.2C13.8,33.6,13.9,33.7,14,33.7z M13.2,33.3
		c-0.1-0.1-0.2-0.1-0.3-0.2C13,33.2,13.1,33.3,13.2,33.3z M12.4,32.9c-0.1-0.1-0.2-0.1-0.3-0.2C12.2,32.8,12.3,32.9,12.4,32.9z
		 M11.6,32.5c-0.1-0.1-0.2-0.1-0.3-0.2C11.4,32.4,11.5,32.5,11.6,32.5z M1.5,21.2c1.1-2.3,4-3.7,8.1-3.7c0.6,0,1.2,0,1.8,0.1
		l-6.3,9.6c-1.9-1.4-3.3-2.5-4-3.1l0-0.1C1,23.1,1.2,22.1,1.5,21.2z M5,28.4c-0.1,0-0.1-0.1-0.2-0.1C4.9,28.3,4.9,28.3,5,28.4z
		 M4.4,28c-0.1,0-0.1-0.1-0.2-0.1C4.3,27.9,4.4,27.9,4.4,28z M3.9,27.6c0,0-0.1-0.1-0.1-0.1C3.8,27.5,3.9,27.6,3.9,27.6z M3.4,27.2
		c0,0-0.1-0.1-0.1-0.1C3.4,27.2,3.4,27.2,3.4,27.2z M3,26.9C2.9,26.8,2.9,26.8,3,26.9C2.9,26.8,2.9,26.8,3,26.9z M2.5,26.5
		C2.5,26.5,2.5,26.5,2.5,26.5C2.5,26.5,2.5,26.5,2.5,26.5z M1.1,25.4C1.1,25.4,1,25.4,1.1,25.4C1,25.4,1.1,25.4,1.1,25.4z M0.9,25.2
		c0,0-0.1-0.1-0.1-0.1C0.8,25.1,0.8,25.2,0.9,25.2z M0.5,24.9c0,0-0.1-0.1-0.1-0.1C0.4,24.8,0.4,24.8,0.5,24.9z M0.6,25
		c0,0-0.1-0.1-0.1-0.1C0.6,25,0.6,25,0.6,25z M22.5,36.9c1.7,0.4,3.4,0.8,5.2,1l0,0C25.8,37.7,24.1,37.3,22.5,36.9z M21.6,36.7
		c0.2,0,0.3,0.1,0.5,0.1C21.9,36.7,21.7,36.7,21.6,36.7z"/>
	<path class="st0" d="M23.5,15.2c0.4,0.6,0.8,1,1.4,1.4l0.1-0.1c-0.6-1.1-1.2-2.2-1.3-3.3c-0.1-0.5,0-1.1,0.4-1.6
		c0.2-0.2,0.5-0.4,0.7-0.5c0.3-0.1,0.6-0.3,0.9-0.5c0.3-0.2,0.6-0.4,0.8-0.7c0.2-0.3,0.3-0.6,0.4-1c0.2-0.7,0.2-1.4,0-2.1
		c-0.2-0.7-0.4-1.3-0.8-1.8C25.9,4.5,25.5,4,25,3.5L25,3.6c0.4,1.2,0.8,2.4,1,3.5c0.1,0.6,0.2,1.1,0.1,1.7c-0.1,0.5-0.3,1-0.6,1.5
		c-0.2,0.2-0.4,0.4-0.7,0.6c-0.3,0.2-0.5,0.4-0.8,0.6c-0.3,0.2-0.5,0.5-0.7,0.8c-0.2,0.3-0.3,0.7-0.4,1c0,0.4,0,0.7,0.1,1.1
		C23.2,14.6,23.4,15,23.5,15.2z"/>
	<path class="st0" d="M28.1,19.8c0.4,0.6,0.8,1,1.4,1.4l0.1-0.1c-0.6-1.1-1.2-2.2-1.3-3.3c-0.1-0.5,0-1.1,0.4-1.6
		c0.2-0.2,0.5-0.4,0.7-0.5c0.3-0.1,0.6-0.3,0.9-0.5c0.3-0.2,0.6-0.4,0.8-0.7c0.2-0.3,0.4-0.6,0.4-1c0.2-0.7,0.2-1.4,0-2.1
		c-0.2-0.7-0.4-1.3-0.8-1.8c-0.3-0.6-0.7-1.1-1.2-1.5l-0.1,0.1c0.4,1.2,0.8,2.4,1,3.5c0.1,0.6,0.2,1.1,0.1,1.7
		c-0.1,0.5-0.3,1-0.6,1.5c-0.2,0.2-0.4,0.4-0.7,0.6c-0.3,0.2-0.5,0.4-0.8,0.6c-0.3,0.2-0.5,0.5-0.7,0.8c-0.2,0.3-0.3,0.7-0.4,1
		c0,0.4,0,0.7,0.1,1.1C27.8,19.2,27.9,19.5,28.1,19.8z"/>
	<path class="st0" d="M34.4,19.8c0.4,0.6,0.8,1,1.4,1.4l0.1-0.1c-0.6-1.1-1.2-2.2-1.3-3.3c-0.1-0.5,0-1.1,0.4-1.6
		c0.2-0.2,0.5-0.4,0.7-0.5c0.3-0.1,0.6-0.3,0.9-0.5c0.3-0.2,0.6-0.4,0.8-0.7c0.2-0.3,0.4-0.6,0.4-1c0.2-0.7,0.2-1.4,0-2.1
		c-0.2-0.7-0.4-1.3-0.8-1.8c-0.3-0.6-0.7-1.1-1.2-1.5l-0.1,0.1c0.4,1.2,0.8,2.4,1,3.5c0.1,0.6,0.2,1.1,0.1,1.7
		c-0.1,0.5-0.3,1-0.6,1.5c-0.2,0.2-0.4,0.4-0.7,0.6c-0.3,0.2-0.5,0.4-0.8,0.6c-0.3,0.2-0.5,0.5-0.7,0.8c-0.2,0.3-0.3,0.7-0.4,1
		c0,0.4,0,0.7,0.1,1.1C34,19.2,34.2,19.5,34.4,19.8z"/>
</g>
</svg>
