<?xml version="1.0" encoding="utf-8"?>
<!-- Generator: Adobe Illustrator 28.2.0, SVG Export Plug-In . SVG Version: 6.00 Build 0)  -->
<svg version="1.1" id="Laag_1" xmlns="http://www.w3.org/2000/svg" xmlns:xlink="http://www.w3.org/1999/xlink" x="0px" y="0px"
	 width="80px" height="80px" viewBox="0 0 80 80" style="enable-background:new 0 0 80 80;" xml:space="preserve">
<style type="text/css">
	.st0{fill:#FFFFFF;stroke:#FFFFFF;stroke-miterlimit:10;}
</style>
<path class="st0" d="M28.5,70c0-0.5,0.1-1,0.3-1.5h-3.3c-1.4,0-2.6-1.5-2.9-3l-13-54H4.5c-1.7,0-3-1.3-3-3s1.3-3,3-3H12
	c1.4,0,2.6,1,2.9,2.3l2.3,9.7H75c0.9,0,1.8,0.4,2.3,1.1c0.4,0.5,0.7,1.2,0.7,1.9c0,0.2,0,0.4-0.1,0.6l-6,27
	c-0.3,1.4-1.5,2.3-2.9,2.3h-44l2.8,12h36.6c1.7,0,3,1.3,3,3c0,1.7-1.3,3-3,3h-3.3c0.2,0.5,0.3,1,0.3,1.5c0,2.5-2,4.5-4.5,4.5
	s-4.5-2-4.5-4.5c0-0.5,0.1-1,0.3-1.5H37.3c0.2,0.5,0.3,1,0.3,1.5c0,2.5-2,4.5-4.5,4.5S28.5,72.4,28.5,70L28.5,70z M22.5,26.5v-3
	h-3.8l0.7,3C19.4,26.5,22.5,26.5,22.5,26.5z M22.5,32.5v-3h-2.4l0.7,3H22.5L22.5,32.5z M22.5,38.5v-3h-1l0.7,3H22.5z M28.5,26.5v-3
	h-3v3H28.5z M28.5,32.5v-3h-3v3H28.5z M28.5,38.5v-3h-3v3H28.5z M28.5,44.5v-3h-3v3H28.5z M34.5,26.5v-3h-3v3H34.5z M34.5,32.5v-3
	h-3v3H34.5z M34.5,38.5v-3h-3v3H34.5z M34.5,44.5v-3h-3v3H34.5z M40.5,26.5v-3h-3v3H40.5z M40.5,32.5v-3h-3v3H40.5z M40.5,38.5v-3
	h-3v3H40.5z M40.5,44.5v-3h-3v3H40.5z M46.5,26.5v-3h-3v3H46.5z M46.5,32.5v-3h-3v3H46.5z M46.5,38.5v-3h-3v3H46.5z M46.5,44.5v-3
	h-3v3H46.5z M52.5,26.5v-3h-3v3H52.5z M52.5,32.5v-3h-3v3H52.5z M52.5,38.5v-3h-3v3H52.5z M52.5,44.5v-3h-3v3H52.5z M58.5,26.5v-3
	h-3v3H58.5z M58.5,32.5v-3h-3v3H58.5z M58.5,38.5v-3h-3v3H58.5z M58.5,44.5v-3h-3v3H58.5z M64.5,26.5v-3h-3v3H64.5z M64.5,32.5v-3
	h-3v3H64.5z M64.5,38.5v-3h-3v3H64.5z M64.5,44.5v-3h-3v3H64.5z M70.6,26.5l0.7-3h-3.8v3H70.6z M69.3,32.5l0.7-3h-2.4v3H69.3z
	 M68,38.5l0.7-3h-1.1v3H68L68,38.5z"/>
</svg>
